<svg width="108" height="132" viewBox="0 0 108 132" fill="none" xmlns="http://www.w3.org/2000/svg">
<g clip-path="url(#clip0_21_157)">
<path d="M107.983 59.5174C107.926 60.4172 107.692 61.2723 107.305 62.0578L107.072 62.4953L106.474 63.6188L105.933 64.633L96.5501 82.2664L96.4932 82.3708L96.4818 82.3907C96.3622 82.6393 96.2939 82.9028 96.2768 83.1861C96.2768 83.2309 96.2768 83.2707 96.2768 83.3154V93.2979C96.2768 93.4023 96.2768 93.5017 96.2654 93.6061C96.2484 93.9094 96.2028 94.2027 96.1288 94.4911C95.6847 96.3305 94.2272 97.8318 92.3085 98.5676C91.3747 98.9255 90.3271 99.1045 89.2397 99.0548C88.3629 99.015 87.5373 98.8261 86.7858 98.5278C85.1119 97.8567 83.8194 96.6039 83.2444 95.0876C83.0565 94.5955 82.9483 94.0784 82.9199 93.5415V82.868C82.9199 82.5249 82.9313 82.1819 82.9483 81.8339C82.9882 81.1877 83.0622 80.5463 83.1761 79.9199C83.4721 78.2346 84.0244 76.6239 84.7873 75.1176L85.0948 74.5459L89.8546 65.6024C89.9855 65.3638 90.0652 65.1003 90.0823 64.8219C90.1506 63.7381 89.2453 62.8035 88.0326 62.6444L87.9131 62.6295L87.1672 62.545L41.1239 57.4294L31.6841 56.3805L31.5759 56.3656C27.2545 55.8684 23.9295 52.8508 23.5082 49.1571C23.3829 47.9987 23.3203 46.8255 23.3203 45.6423C23.3203 25.0359 42.5131 8.32715 66.1924 8.32715C85.9488 8.32715 102.585 19.9602 107.55 35.789C107.652 36.1171 107.749 36.4502 107.846 36.7833C107.914 37.1164 107.943 37.4544 107.943 37.8074C107.943 41.1482 104.834 43.8576 100.991 43.8576C97.7685 43.8576 95.0584 41.9486 94.2727 39.3585C94.2556 39.2889 94.2329 39.2193 94.2158 39.1497C91.073 28.2823 79.7714 20.2386 66.3062 20.2386C51.8675 20.2386 39.9112 29.4903 37.8444 41.5608C37.833 41.6304 37.816 41.705 37.8046 41.7795C37.7989 41.8293 37.7875 41.874 37.7818 41.9237C37.7818 41.9734 37.7704 42.0182 37.7704 42.0629C37.685 43.4151 38.7269 44.5983 40.1845 44.9314L41.0385 45.0259L41.3459 45.0607L94.3467 50.9468L100.331 51.6129L100.405 51.6229C103.559 51.9808 106.149 53.7804 107.322 56.1965C107.818 57.2107 108.062 58.3392 107.994 59.5174H107.983Z" fill="#06A6FF"/>
<path d="M68.8913 1.28262C68.88 1.48644 68.6807 1.64055 68.4416 1.63061C67.6274 1.60078 66.8075 1.58587 65.982 1.58587C34.161 1.59084 8.36375 24.0416 8.36375 51.7371C8.36375 72.7163 23.1612 90.6879 44.1702 98.1698C44.3296 98.2294 44.4378 98.3686 44.4207 98.5277C44.4093 98.7316 44.21 98.8857 43.9709 98.8757C43.9538 98.8757 43.9424 98.8757 43.931 98.8757C43.9083 98.8757 43.8855 98.8658 43.8627 98.8608C43.8627 98.8608 43.8513 98.8608 43.8456 98.8608C18.6747 93.4867 0 73.7156 0 50.1513C0 22.4507 25.7972 0 57.6182 0C61.3475 0 64.997 0.313197 68.527 0.899819C68.7319 0.924676 68.8913 1.10365 68.8913 1.28262Z" fill="#FCF300"/>
<path d="M56.9978 112.209C55.2727 112.209 53.6557 111.284 53.0351 109.793C52.238 107.889 53.3654 105.781 55.5574 105.085L75.1202 98.8907C77.3122 98.1997 79.732 99.179 80.529 101.083C81.3261 102.987 80.1988 105.095 78.0068 105.791L58.444 111.985C57.9714 112.134 57.4818 112.209 57.0035 112.209H56.9978Z" fill="white"/>
<path d="M67.1326 132C65.4074 132 63.7905 131.075 63.1699 129.584C62.3728 127.68 63.5001 125.572 65.6921 124.876L85.255 118.682C87.447 117.991 89.8667 118.97 90.6638 120.874C91.4609 122.778 90.3336 124.886 88.1416 125.582L68.5787 131.776C68.1062 131.925 67.6165 132 67.1383 132H67.1326Z" fill="white"/>
<path d="M59.156 123.012C57.4309 123.012 55.8139 122.087 55.1933 120.596C54.3962 118.692 55.5236 116.584 57.7156 115.888L87.4584 106.467C89.6447 105.776 92.0701 106.755 92.8672 108.659C93.6643 110.564 92.537 112.671 90.345 113.367L60.6022 122.788C60.1296 122.937 59.64 123.012 59.1617 123.012H59.156Z" fill="white"/>
</g>
<defs>
<clipPath id="clip0_21_157">
<rect width="108" height="132" fill="white"/>
</clipPath>
</defs>
</svg>
