<svg width="1433" height="1303" viewBox="0 0 1433 1303" fill="none" xmlns="http://www.w3.org/2000/svg">
<path d="M1.62839 57.0016L127.457 57.9514L127.341 103.274L347.276 104.934L596.254 106.813" stroke="#09FF00" stroke-miterlimit="10"/>
<path d="M1.4729 102.981L41.9373 103.289L42.0098 74.5611L98.4063 74.9908L98.2259 146.504L212.64 147.376L212.682 130.959L513.345 133.251" stroke="#09FF00" stroke-miterlimit="10"/>
<path d="M364.631 213.547L364.548 246.365L607.827 248.218" stroke="#09FF00" stroke-miterlimit="10"/>
<path d="M513.934 132.553C513.922 137.191 519.029 140.989 525.339 141.038C531.649 141.086 536.774 137.366 536.786 132.729C536.797 128.092 531.691 124.294 525.381 124.245C519.071 124.196 513.946 127.916 513.934 132.553Z" stroke="#09FF00" stroke-miterlimit="10"/>
<path d="M596.842 106.795C596.831 111.432 601.937 115.231 608.247 115.279C614.557 115.328 619.682 111.608 619.694 106.971C619.705 102.334 614.599 98.5353 608.289 98.4867C601.979 98.4381 596.854 102.158 596.842 106.795Z" stroke="#09FF00" stroke-miterlimit="10"/>
<path d="M611.629 154.947C611.618 159.584 616.724 163.382 623.034 163.431C629.344 163.479 634.469 159.76 634.481 155.122C634.493 150.485 629.386 146.687 623.076 146.638C616.766 146.59 611.641 150.31 611.629 154.947Z" stroke="#09FF00" stroke-miterlimit="10"/>
<path d="M598.971 188.752C598.96 193.389 604.066 197.188 610.376 197.236C616.686 197.285 621.811 193.565 621.823 188.928C621.834 184.291 616.728 180.492 610.418 180.444C604.108 180.395 598.983 184.115 598.971 188.752Z" stroke="#09FF00" stroke-miterlimit="10"/>
<path d="M591.426 295.127C591.415 299.764 596.521 303.563 602.831 303.612C609.141 303.66 614.266 299.94 614.278 295.303C614.289 290.666 609.183 286.868 602.873 286.819C596.563 286.77 591.438 290.49 591.426 295.127Z" stroke="#09FF00" stroke-miterlimit="10"/>
<path d="M607.864 248.197C607.852 252.834 612.958 256.633 619.269 256.681C625.579 256.73 630.704 253.01 630.715 248.373C630.727 243.736 625.621 239.937 619.311 239.889C613 239.84 607.875 243.56 607.864 248.197Z" stroke="#09FF00" stroke-miterlimit="10"/>
<path d="M574.366 338.261C574.354 342.898 579.46 346.696 585.771 346.745C592.081 346.793 597.206 343.073 597.217 338.436C597.229 333.799 592.123 330.001 585.812 329.952C579.502 329.904 574.377 333.623 574.366 338.261Z" stroke="#09FF00" stroke-miterlimit="10"/>
<path d="M533.129 360.261C533.118 364.898 538.224 368.696 544.534 368.745C550.844 368.793 555.969 365.074 555.981 360.436C555.993 355.799 550.886 352.001 544.576 351.952C538.266 351.904 533.141 355.623 533.129 360.261Z" stroke="#09FF00" stroke-miterlimit="10"/>
<path d="M513.082 389.555C513.071 394.192 518.177 397.99 524.487 398.039C530.798 398.087 535.923 394.368 535.934 389.73C535.946 385.093 530.84 381.295 524.529 381.246C518.219 381.198 513.094 384.917 513.082 389.555Z" stroke="#09FF00" stroke-miterlimit="10"/>
<path d="M425.993 421.524C425.981 426.161 431.087 429.96 437.397 430.008C443.708 430.057 448.833 426.337 448.844 421.7C448.856 417.063 443.75 413.264 437.439 413.216C431.129 413.167 426.004 416.887 425.993 421.524Z" stroke="#09FF00" stroke-miterlimit="10"/>
<path d="M585.393 457.683C585.381 462.32 590.488 466.118 596.798 466.167C603.108 466.215 608.233 462.496 608.245 457.858C608.256 453.221 603.15 449.423 596.84 449.374C590.53 449.326 585.405 453.045 585.393 457.683Z" stroke="#09FF00" stroke-miterlimit="10"/>
<path d="M4.25 0.0139771L2.39982 560.002" stroke="#09FF00" stroke-miterlimit="10"/>
<path d="M1.3243 151.415L65.9646 152.011L65.9243 171.356L401.039 174.441L401.079 155.096L610.508 157.024" stroke="#09FF00" stroke-miterlimit="10"/>
<path d="M3.35589 268.342L295.233 271.23L295.345 213.585L467.792 215.291L467.842 189.902L603.205 191.241" stroke="#09FF00" stroke-miterlimit="10"/>
<path d="M1.15577 210.807L201.129 211.971" stroke="#09FF00" stroke-miterlimit="10"/>
<path d="M295.159 264.793L295.105 292.095L592.462 294.999" stroke="#09FF00" stroke-miterlimit="10"/>
<path d="M3.19773 303.78L267.405 306.29L267.347 335.357L576.74 338.296" stroke="#09FF00" stroke-miterlimit="10"/>
<path d="M3.07002 357.196L251.609 358.643L533.137 360.282" stroke="#09FF00" stroke-miterlimit="10"/>
<path d="M2.81437 432.715L136.547 434.021L136.638 387.912L512.457 391.58" stroke="#09FF00" stroke-miterlimit="10"/>
<path d="M57.0636 356.974L57.1056 335.271L187.609 336.568" stroke="#09FF00" stroke-miterlimit="10"/>
<path d="M2.94985 393.725L82.3184 394.187" stroke="#09FF00" stroke-miterlimit="10"/>
<path d="M0.349175 452.642L172.148 454.311L172.215 420.322L426 422.786" stroke="#09FF00" stroke-miterlimit="10"/>
<path d="M0.207044 496.577L232.418 498.822L232.502 456.544L585.4 459.957" stroke="#09FF00" stroke-miterlimit="10"/>
<path d="M199.203 211.879C199.189 219.468 207.58 225.705 217.946 225.81C228.312 225.915 236.727 219.848 236.741 212.259C236.756 204.67 228.364 198.433 217.998 198.328C207.632 198.223 199.218 204.29 199.203 211.879Z" stroke="#09FF00" stroke-miterlimit="10"/>
<path d="M82.304 394.138C82.2952 398.76 87.4059 402.559 93.7189 402.622C100.032 402.686 105.157 398.991 105.166 394.369C105.175 389.748 100.064 385.949 93.7508 385.885C87.4377 385.821 82.3128 389.516 82.304 394.138Z" stroke="#09FF00" stroke-miterlimit="10"/>
<path d="M187.452 335.981C187.444 340.603 192.554 344.401 198.867 344.465C205.18 344.529 210.305 340.834 210.314 336.212C210.323 331.59 205.212 327.792 198.899 327.728C192.586 327.664 187.461 331.359 187.452 335.981Z" stroke="#09FF00" stroke-miterlimit="10"/>
<path d="M1449.45 1233.75L1301.44 1235.15L1301.1 1179.99L1042.4 1182.44L749.536 1185.21" stroke="#FF1E1E" stroke-miterlimit="10"/>
<path d="M1449.09 1178.25L1401.49 1178.71L1401.71 1213.5L1335.37 1214.13L1334.84 1127.52L1200.26 1128.8L1200.38 1148.68L846.725 1152.05" stroke="#FF1E1E" stroke-miterlimit="10"/>
<path d="M1020.59 1051.92L1020.34 1012.16L734.186 1014.88" stroke="#FF1E1E" stroke-miterlimit="10"/>
<path d="M846.004 1152.17C845.97 1146.58 839.925 1142.11 832.503 1142.18C825.081 1142.25 819.092 1146.84 819.127 1152.43C819.161 1158.01 825.206 1162.49 832.628 1162.42C840.05 1162.35 846.039 1157.76 846.004 1152.17Z" stroke="#FF1E1E" stroke-miterlimit="10"/>
<path d="M748.799 1184.59C748.765 1179 742.72 1174.53 735.298 1174.6C727.876 1174.67 721.887 1179.26 721.922 1184.85C721.956 1190.43 728.001 1194.91 735.423 1194.83C742.845 1194.76 748.834 1190.18 748.799 1184.59Z" stroke="#FF1E1E" stroke-miterlimit="10"/>
<path d="M730.821 1126.89C730.786 1121.3 724.741 1116.83 717.319 1116.9C709.897 1116.97 703.908 1121.56 703.943 1127.15C703.978 1132.74 710.023 1137.21 717.445 1137.14C724.867 1137.07 730.856 1132.48 730.821 1126.89Z" stroke="#FF1E1E" stroke-miterlimit="10"/>
<path d="M745.295 1085.99C745.261 1080.4 739.216 1075.93 731.794 1076C724.372 1076.07 718.383 1080.66 718.418 1086.25C718.452 1091.84 724.497 1096.31 731.919 1096.24C739.341 1096.17 745.33 1091.58 745.295 1085.99Z" stroke="#FF1E1E" stroke-miterlimit="10"/>
<path d="M752.87 957.841C752.835 952.253 746.79 947.78 739.368 947.851C731.946 947.922 725.957 952.51 725.992 958.098C726.027 963.686 732.071 968.158 739.494 968.087C746.916 968.016 752.904 963.429 752.87 957.841Z" stroke="#FF1E1E" stroke-miterlimit="10"/>
<path d="M734.108 1014.6C734.073 1009.01 728.028 1004.54 720.606 1004.61C713.184 1004.68 707.196 1009.27 707.23 1014.86C707.265 1020.45 713.31 1024.92 720.732 1024.85C728.154 1024.78 734.143 1020.19 734.108 1014.6Z" stroke="#FF1E1E" stroke-miterlimit="10"/>
<path d="M772.411 905.638C772.376 900.05 766.331 895.578 758.909 895.649C751.487 895.72 745.498 900.307 745.533 905.895C745.568 911.483 751.612 915.956 759.035 915.885C766.457 915.814 772.445 911.226 772.411 905.638Z" stroke="#FF1E1E" stroke-miterlimit="10"/>
<path d="M820.643 878.457C820.608 872.869 814.564 868.396 807.142 868.467C799.719 868.538 793.731 873.126 793.765 878.714C793.8 884.302 799.845 888.774 807.267 888.703C814.689 888.632 820.678 884.045 820.643 878.457Z" stroke="#FF1E1E" stroke-miterlimit="10"/>
<path d="M843.87 842.859C843.835 837.271 837.79 832.798 830.368 832.869C822.946 832.94 816.957 837.528 816.992 843.116C817.027 848.704 823.071 853.176 830.494 853.105C837.916 853.034 843.904 848.447 843.87 842.859Z" stroke="#FF1E1E" stroke-miterlimit="10"/>
<path d="M945.909 802.894C945.874 797.306 939.829 792.833 932.407 792.904C924.985 792.975 918.996 797.563 919.031 803.151C919.066 808.739 925.111 813.211 932.533 813.14C939.955 813.069 945.943 808.482 945.909 802.894Z" stroke="#FF1E1E" stroke-miterlimit="10"/>
<path d="M757.985 762.105C757.95 756.517 751.905 752.045 744.483 752.116C737.061 752.187 731.073 756.774 731.107 762.362C731.142 767.95 737.187 772.423 744.609 772.352C752.031 772.281 758.02 767.693 757.985 762.105Z" stroke="#FF1E1E" stroke-miterlimit="10"/>
<path d="M1448.66 1119.59L1372.62 1120.37L1372.48 1095.75L978.299 1099.77L978.442 1124.38L732.1 1126.89" stroke="#FF1E1E" stroke-miterlimit="10"/>
<path d="M1444.98 977.116L1101.66 980.728L1102.06 1051.2L899.218 1053.33L899.393 1084.37L740.172 1086.05" stroke="#FF1E1E" stroke-miterlimit="10"/>
<path d="M1448.17 1049.26L1212.95 1051.28" stroke="#FF1E1E" stroke-miterlimit="10"/>
<path d="M1101.66 988.664L1101.47 955.049L751.702 958.707" stroke="#FF1E1E" stroke-miterlimit="10"/>
<path d="M1444.58 936.229L1133.8 939.439L1133.59 903.092L769.664 906.852" stroke="#FF1E1E" stroke-miterlimit="10"/>
<path d="M1444.13 873.115L1151.79 875.626L820.637 878.47" stroke="#FF1E1E" stroke-miterlimit="10"/>
<path d="M1443.56 779.809L1286.26 781.454L1286.58 838.243L844.521 842.866" stroke="#FF1E1E" stroke-miterlimit="10"/>
<path d="M1380.66 873.66L1380.81 900.126L1227.3 901.745" stroke="#FF1E1E" stroke-miterlimit="10"/>
<path d="M1443.83 829.151L1350.47 829.953" stroke="#FF1E1E" stroke-miterlimit="10"/>
<path d="M1446.2 756.208L1244.12 758.317L1244.36 800.293L945.842 803.408" stroke="#FF1E1E" stroke-miterlimit="10"/>
<path d="M1445.85 702.613L1172.71 705.458L1173.01 757.796L757.908 762.118" stroke="#FF1E1E" stroke-miterlimit="10"/>
<path d="M1215.2 1051.22C1215.15 1042.05 1205.23 1034.73 1193.03 1034.86C1180.84 1034.99 1171 1042.52 1171.05 1051.68C1171.1 1060.85 1181.03 1068.17 1193.22 1068.04C1205.41 1067.91 1215.25 1060.38 1215.2 1051.22Z" stroke="#FF1E1E" stroke-miterlimit="10"/>
<path d="M1350.48 829.926C1350.45 824.345 1344.4 819.886 1336.98 819.965C1329.55 820.044 1323.56 824.631 1323.59 830.211C1323.62 835.791 1329.67 840.251 1337.09 840.172C1344.52 840.093 1350.51 835.506 1350.48 829.926Z" stroke="#FF1E1E" stroke-miterlimit="10"/>
<path d="M1227.51 901.716C1227.48 896.136 1221.44 891.676 1214.01 891.755C1206.58 891.834 1200.59 896.422 1200.62 902.002C1200.65 907.582 1206.7 912.041 1214.12 911.962C1221.55 911.884 1227.54 907.296 1227.51 901.716Z" stroke="#FF1E1E" stroke-miterlimit="10"/>
<path d="M107.476 548.431C106.293 547.102 104.251 547.006 102.893 548.216C101.535 549.426 101.395 551.465 102.579 552.793C103.102 553.381 103.813 553.686 104.538 553.782C109.941 561.821 111.088 571.58 108.295 580.591C107.973 580.722 107.647 580.895 107.38 581.133C106.022 582.342 105.882 584.381 107.065 585.71C108.249 587.038 110.29 587.134 111.648 585.924C112.806 584.893 113.004 583.233 112.298 581.947C115.619 571.646 114.213 560.476 108.146 551.154C108.337 550.203 108.133 549.213 107.454 548.45L107.476 548.431Z" fill="#60FF57"/>
<path d="M61.7667 537.586C61.3883 537.923 61.1126 538.286 60.895 538.714C56.4613 540.28 52.3619 542.76 48.4438 546.25C43.9024 550.295 40.6468 554.484 38.5314 559.415C38.0616 559.56 37.6056 559.81 37.2049 560.167C35.691 561.516 35.5559 563.784 36.8558 565.244C38.1556 566.703 40.4471 566.81 41.9386 565.482C43.0072 564.53 43.3767 563.107 43.0459 561.839C44.8548 557.416 47.7485 553.627 51.8002 550.018C55.1617 547.024 58.6133 544.848 62.4077 543.46C63.7009 544.105 65.3206 543.951 66.4782 542.92C67.9921 541.572 68.1272 539.303 66.8273 537.844C65.5275 536.384 63.236 536.277 61.7445 537.606L61.7667 537.586Z" fill="#60FF57"/>
<path d="M75.6858 607.49C75.5077 607.649 75.3519 607.787 75.2126 607.99C66.7462 609.242 58.6805 607.403 51.9863 601.726C51.8849 601.074 51.6139 600.456 51.1289 599.912C49.8096 598.431 47.5376 598.345 46.046 599.674C44.5322 601.022 44.3971 603.291 45.697 604.75C46.5894 605.752 47.9026 606.106 49.1337 605.829C56.8163 611.72 66.1866 614.037 75.5308 612.784C76.8643 614.057 78.9726 614.093 80.3973 612.824C81.9111 611.476 82.0462 609.207 80.7464 607.748C79.4465 606.288 77.1551 606.181 75.6636 607.51L75.6858 607.49Z" fill="#60FF57"/>
<path d="M32.5674 609.375C40.3593 598.176 51.915 593.938 62.4982 595.331C63.3258 595.453 64.1323 594.969 64.3756 594.166L66.2235 588.263C66.4359 587.605 66.1707 586.903 65.6354 586.482C65.0197 586.015 64.4514 585.466 63.9275 584.878C60.1638 580.653 59.5702 574.697 61.8911 569.818C62.184 569.205 62.1299 568.472 61.6837 567.971L57.4349 563.201C56.8917 562.591 55.978 562.507 55.2577 562.953C47.6393 567.982 37.6552 569.727 27.1768 565.896C21.3866 563.789 16.4894 559.635 13.5586 554.238C9.10557 546.057 8.59459 537.684 10.8092 530.399C8.35634 535.982 7.13556 542.187 7.46713 548.61C8.27408 564.531 18.2645 577.585 32.0979 583.075C33.1971 583.502 33.5193 584.895 32.687 585.753C20.0922 598.417 16.7915 618.154 25.8317 634.085C29.037 639.745 33.4502 644.251 38.5519 647.558C32.7616 642.716 28.6874 635.408 27.9923 626.067C27.5596 620.202 29.1381 614.265 32.5257 609.373L32.5674 609.375Z" fill="#60FF57"/>
<path d="M120.152 594.482C108.603 592.23 100.885 585.043 97.427 576.365C97.123 575.621 96.3794 575.189 95.5957 575.34L89.3489 576.53C88.6292 576.663 88.1086 577.244 87.9766 577.948C87.3985 580.884 85.9124 583.653 83.4859 585.815C81.2374 587.818 78.5463 588.965 75.7844 589.315C75.1093 589.409 74.4945 589.839 74.3015 590.519L72.2691 596.978C72.0287 597.739 72.3715 598.527 73.0346 598.913C80.8785 603.371 86.7954 611.538 87.8007 622.751C88.3577 628.935 86.7146 635.203 83.1015 640.335C77.636 648.094 70.3162 652.427 62.8411 653.851C68.9086 653.446 74.9872 651.664 80.6242 648.401C95.5109 639.789 103.038 623.319 100.867 607.48C100.717 606.325 101.808 605.353 102.938 605.635C118.421 609.616 135.649 604.036 145.918 590.241C149.832 584.997 152.302 579.164 153.38 573.204C151.102 580.506 145.933 587.298 137.535 591.81C132.196 594.691 125.985 595.652 120.107 594.521L120.152 594.482Z" fill="#60FF57"/>
<path d="M138.119 534.104C123.315 523.268 103.266 524.291 89.2327 535.385C88.3257 536.115 86.935 535.674 86.6344 534.574C81.8647 516.714 65.0203 504.258 45.6787 505.628C39.1249 506.114 33.0098 508.123 27.673 511.276C34.7015 508.14 43.1386 507.617 51.8735 510.969C57.3498 513.083 61.9697 517.014 64.7733 522.134C71.2746 533.96 69.6612 546.178 63.3656 555.067C62.9032 555.713 62.9293 556.549 63.4531 557.137L67.954 562.19C68.4197 562.713 69.1416 562.851 69.806 562.611C75.0153 560.705 80.9684 561.964 84.8097 566.277C85.4499 566.996 85.9845 567.73 86.4301 568.544L93.9469 567.122C94.7721 566.973 95.3236 566.247 95.3169 565.433C95.3707 555.229 100.708 544.772 111.888 538.407C117.347 535.303 123.754 534.204 129.838 535.387C139.037 537.153 145.828 542.042 149.97 548.351C147.273 542.903 143.305 538 138.052 534.164L138.119 534.104Z" fill="#60FF57"/>
<path d="M74.3914 575.557C74.3914 575.557 74.3418 575.367 74.3281 575.262C74.2613 575.321 74.1723 575.401 74.1055 575.46C74.2082 575.486 74.2887 575.531 74.3914 575.557Z" fill="#60FF57"/>
<path d="M1357.59 91.2989C1356.41 89.8354 1354.37 89.7427 1353 91.0909C1351.63 92.439 1351.48 94.6975 1352.66 96.1611C1353.18 96.8088 1353.89 97.1415 1354.61 97.2438C1359.98 106.11 1361.07 116.908 1358.22 126.904C1357.9 127.051 1357.57 127.245 1357.3 127.51C1355.93 128.858 1355.78 131.117 1356.96 132.58C1358.14 134.044 1360.18 134.136 1361.55 132.788C1362.71 131.639 1362.92 129.799 1362.22 128.38C1365.6 116.952 1364.26 104.593 1358.24 94.3106C1358.44 93.2562 1358.24 92.1607 1357.56 91.321L1357.59 91.2989Z" fill="#60FF57"/>
<path d="M1311.81 79.2981C1311.43 79.6721 1311.15 80.0738 1310.93 80.5471C1306.5 82.3024 1302.4 85.062 1298.48 88.9342C1293.93 93.4224 1290.66 98.0608 1288.52 103.51C1288.05 103.673 1287.59 103.951 1287.19 104.347C1285.68 105.843 1285.53 108.345 1286.81 109.945C1288.1 111.545 1290.39 111.649 1291.88 110.175C1292.95 109.119 1293.33 107.548 1293.01 106.153C1294.83 101.265 1297.74 97.0703 1301.8 93.0661C1305.17 89.744 1308.62 87.3231 1312.41 85.7691C1313.7 86.4717 1315.32 86.2918 1316.48 85.1478C1317.99 83.6517 1318.14 81.15 1316.85 79.5498C1315.57 77.9496 1313.28 77.8461 1311.79 79.3201L1311.81 79.2981Z" fill="#60FF57"/>
<path d="M1325.69 156.592C1325.51 156.769 1325.36 156.924 1325.22 157.149C1316.73 158.59 1308.67 156.606 1302 150.363C1301.9 149.642 1301.63 148.959 1301.15 148.359C1299.84 146.728 1297.56 146.648 1296.06 148.129C1294.54 149.631 1294.39 152.144 1295.68 153.752C1296.57 154.855 1297.88 155.239 1299.12 154.925C1306.78 161.398 1316.14 163.903 1325.51 162.455C1326.84 163.856 1328.95 163.883 1330.38 162.468C1331.9 160.966 1332.05 158.453 1330.76 156.845C1329.47 155.238 1327.17 155.134 1325.67 156.614L1325.69 156.592Z" fill="#60FF57"/>
<path d="M1282.43 158.756C1290.3 146.303 1301.9 141.534 1312.49 143.008C1313.32 143.138 1314.13 142.597 1314.38 141.706L1316.26 135.156C1316.48 134.426 1316.22 133.651 1315.68 133.187C1315.07 132.674 1314.5 132.07 1313.98 131.422C1310.24 126.767 1309.68 120.174 1312.03 114.755C1312.33 114.075 1312.28 113.263 1311.83 112.711L1307.6 107.456C1307.06 106.784 1306.15 106.696 1305.43 107.195C1297.77 112.813 1287.76 114.81 1277.29 110.636C1271.5 108.339 1266.62 103.77 1263.72 97.8117C1259.3 88.7788 1258.84 79.5088 1261.1 71.426C1258.61 77.6255 1257.35 84.5052 1257.65 91.6171C1258.36 109.246 1268.29 123.639 1282.11 129.63C1283.21 130.096 1283.53 131.637 1282.69 132.593C1270 146.7 1266.58 168.581 1275.54 186.167C1278.72 192.416 1283.11 197.378 1288.2 201.008C1282.43 195.682 1278.39 187.614 1277.75 177.273C1277.35 170.78 1278.97 164.194 1282.39 158.754L1282.43 158.756Z" fill="#60FF57"/>
<path d="M1370.15 142.154C1358.64 139.742 1350.98 131.862 1347.58 122.308C1347.28 121.488 1346.54 121.017 1345.75 121.189L1339.51 122.541C1338.79 122.693 1338.27 123.337 1338.14 124.115C1337.54 127.359 1336.04 130.424 1333.61 132.825C1331.35 135.05 1328.66 136.333 1325.9 136.738C1325.23 136.845 1324.61 137.324 1324.42 138.075L1322.35 145.216C1322.11 146.057 1322.44 146.925 1323.1 147.346C1330.91 152.216 1336.76 161.19 1337.7 173.557C1338.22 180.377 1336.54 187.305 1332.91 192.992C1327.41 201.589 1320.08 206.417 1312.61 208.037C1318.67 207.551 1324.75 205.546 1330.39 201.908C1345.3 192.309 1352.9 174.086 1350.83 156.621C1350.69 155.347 1351.78 154.268 1352.91 154.572C1368.33 158.866 1385.56 152.597 1395.89 137.308C1399.82 131.496 1402.32 125.044 1403.43 118.459C1401.12 126.533 1395.92 134.061 1387.51 139.094C1382.17 142.307 1375.96 143.408 1370.1 142.198L1370.15 142.154Z" fill="#60FF57"/>
<path d="M1388.18 75.1362C1373.41 63.2284 1353.33 64.4911 1339.21 76.8696C1338.3 77.6838 1336.91 77.2045 1336.61 75.9887C1331.94 56.237 1315.14 42.5488 1295.76 44.1904C1289.19 44.7713 1283.06 47.0367 1277.69 50.5627C1284.75 47.0442 1293.2 46.4101 1301.93 50.0664C1307.41 52.3727 1312.01 56.6975 1314.79 62.3502C1321.23 75.4069 1319.54 88.9504 1313.19 98.8367C1312.72 99.5555 1312.74 100.481 1313.26 101.129L1317.74 106.697C1318.2 107.273 1318.93 107.422 1319.59 107.151C1324.82 105.007 1330.78 106.364 1334.6 111.115C1335.24 111.907 1335.77 112.718 1336.21 113.616L1343.75 111.993C1344.57 111.822 1345.13 111.015 1345.13 110.113C1345.24 98.8105 1350.65 87.193 1361.88 80.0715C1367.37 76.5973 1373.79 75.3393 1379.88 76.6097C1389.08 78.507 1395.85 83.8783 1399.97 90.8402C1397.3 84.8225 1393.35 79.4175 1388.11 75.2025L1388.18 75.1362Z" fill="#60FF57"/>
<path d="M1324.39 121.332C1324.39 121.332 1324.34 121.121 1324.33 121.005C1324.26 121.071 1324.17 121.16 1324.11 121.226C1324.21 121.254 1324.29 121.304 1324.39 121.332Z" fill="#60FF57"/>
</svg>
