<svg width="189" height="102" viewBox="0 0 189 102" fill="none" xmlns="http://www.w3.org/2000/svg">
<path d="M94.0698 1.52588e-05L49.7969 70.2837C50.1819 70.2837 50.426 70.6682 50.2301 70.9738H138.772C138.58 70.6682 138.821 70.2837 139.206 70.2837L94.9396 1.52588e-05C94.747 0.305665 94.2623 0.305665 94.0698 1.52588e-05ZM94.9396 7.86499L131.78 66.3481C131.395 66.3481 131.151 66.7325 131.347 67.0382H57.6662C57.8587 66.7325 57.618 66.3481 57.233 66.3481L94.0698 7.86499C94.2623 8.17064 94.747 8.17064 94.9396 7.86499Z" fill="#60FF57"/>
<path d="M94.3113 7.48056L56.9863 66.7325C57.1582 66.7325 57.2648 66.9027 57.1788 67.0382H131.825C131.739 66.9027 131.846 66.7325 132.018 66.7325L94.6963 7.48056C94.6104 7.61605 94.3972 7.61605 94.3113 7.48056L56.9863 66.7325C57.1582 66.7325 57.2648 66.9027 57.1788 67.0382H131.825C131.739 66.9027 131.846 66.7325 132.018 66.7325L94.6963 7.48056C94.6104 7.61605 94.3972 7.61605 94.3113 7.48056Z" fill="black"/>
<path d="M78.579 45.4221C82.512 44.5367 85.9086 45.7971 87.9679 48.0374C88.1294 48.2139 88.401 48.2612 88.6142 48.1414L90.1887 47.2623C90.3675 47.1646 90.4466 46.9724 90.4122 46.7865C90.3709 46.5754 90.3503 46.3611 90.3503 46.1405C90.3503 44.5682 91.3885 43.2227 92.8737 42.6429C93.0628 42.5673 93.1934 42.4066 93.1934 42.2175V40.4403C93.1934 40.2103 93.0078 40.0244 92.7603 39.9897C90.0856 39.6273 87.5278 38.1432 85.9636 35.4176C85.0972 33.9082 84.836 32.15 85.2519 30.4862C85.8811 27.9685 87.4178 26.1409 89.343 25.0318C87.7032 25.7408 86.2111 26.7964 85.0113 28.1923C82.0513 31.6395 81.6938 36.1959 83.6671 39.8889C83.8218 40.1819 83.6258 40.5317 83.2717 40.5506C77.9912 40.8468 73.3638 44.3318 72.2259 49.3073C71.8236 51.0687 71.9061 52.8207 72.384 54.4466C72.0574 52.3733 72.5971 50.1077 74.2886 48.0406C75.3474 46.7455 76.8704 45.8065 78.5859 45.4189L78.579 45.4221Z" fill="#60FF57"/>
<path d="M100.901 58.5115C98.794 55.9119 98.4949 52.9972 99.4472 50.5583C99.5297 50.3503 99.4472 50.1234 99.2409 50.0068L97.6217 49.1025C97.4394 48.9985 97.2091 49.0237 97.0407 49.1435C96.3393 49.6445 95.4558 49.947 94.4966 49.947C93.6062 49.947 92.7811 49.6886 92.1039 49.2506C91.9354 49.1403 91.7154 49.1246 91.5401 49.2222L89.8177 50.1865C89.6149 50.2999 89.5358 50.5236 89.608 50.7284C90.4709 53.098 90.1649 55.8867 88.1813 58.4012C87.088 59.7845 85.4825 60.7834 83.6708 61.1804C80.9308 61.7791 78.459 61.3285 76.5234 60.2382C77.9433 61.2718 79.6381 62.028 81.5359 62.3935C86.5276 63.3546 91.4438 61.3317 94.0841 57.6481C94.2766 57.3803 94.7132 57.3803 94.9057 57.6481C97.546 61.3317 102.462 63.3546 107.454 62.3935C109.352 62.028 111.047 61.2718 112.466 60.2382C110.521 61.3317 108.042 61.7822 105.288 61.1741C103.535 60.7865 101.971 59.8412 100.898 58.5146L100.901 58.5115Z" fill="#60FF57"/>
<path d="M116.778 49.3105C115.636 44.3255 110.995 40.8374 105.704 40.5506C105.357 40.5317 105.137 40.1882 105.292 39.9015C107.76 35.3199 106.488 29.626 101.929 26.3395C100.386 25.2271 98.636 24.5182 96.8346 24.1905C99.0039 24.8427 100.981 26.289 102.256 28.5956C103.054 30.0419 103.298 31.712 102.913 33.2938C102.026 36.9427 99.2514 39.1799 96.1126 39.8574C95.8857 39.9078 95.7207 40.0843 95.7207 40.3017V42.1797C95.7207 42.3719 95.8548 42.5358 96.0507 42.6082C97.5772 43.1723 98.6532 44.5398 98.6532 46.1374C98.6532 46.4021 98.6223 46.6605 98.5673 46.9094L100.517 47.9996C100.726 48.1162 100.994 48.0721 101.156 47.902C103.181 45.7939 106.416 44.6123 110.153 45.3622C111.972 45.7278 113.608 46.6825 114.725 48.0469C116.413 50.114 116.95 52.3796 116.623 54.4498C117.101 52.8239 117.183 51.0719 116.781 49.3105H116.778Z" fill="#60FF57"/>
<path d="M94.4998 46.1405C94.5135 46.1153 94.5307 46.0901 94.5445 46.0681C94.5135 46.0681 94.486 46.0681 94.4551 46.0681C94.4688 46.0933 94.486 46.1185 94.4998 46.1405Z" fill="#60FF57"/>
<path d="M0 96.9635V84.6745H12.3626V87.1481H2.71936V89.5712H10.4855V92.0637H2.71936V94.4868H12.366V96.9604H0V96.9635Z" fill="url(#paint0_linear_20_146)"/>
<path d="M16.8519 96.9635C16.3671 96.9635 15.9202 96.8532 15.5111 96.6295C15.102 96.4089 14.7788 96.1096 14.5416 95.7346C14.3044 95.3596 14.1875 94.95 14.1875 94.5057V93.4659H16.869V94.386C16.869 94.408 16.8794 94.4301 16.8965 94.4553C16.9137 94.4805 16.9378 94.4899 16.9619 94.4899H24.7658C24.7899 94.4899 24.814 94.4773 24.8415 94.4553C24.8655 94.4332 24.8793 94.4112 24.8793 94.386V92.1487C24.8793 92.1267 24.8655 92.1046 24.8415 92.0889C24.8174 92.0731 24.7933 92.0637 24.7658 92.0637H16.8519C16.3671 92.0637 15.9202 91.9534 15.5111 91.7296C15.102 91.5059 14.7788 91.2129 14.5416 90.8411C14.3044 90.4724 14.1875 90.0596 14.1875 89.6027V87.1291C14.1875 86.6848 14.3044 86.2752 14.5416 85.9002C14.7788 85.5253 15.102 85.2259 15.5111 85.0053C15.9202 84.7848 16.3671 84.6713 16.8519 84.6713H24.9137C25.3984 84.6713 25.8419 84.7816 26.2441 85.0053C26.6463 85.2259 26.9729 85.5253 27.2205 85.9002C27.468 86.2752 27.5918 86.6848 27.5918 87.1291V88.169H24.8724V87.2489C24.8724 87.2268 24.8587 87.2048 24.8346 87.1796C24.8105 87.1575 24.7865 87.1449 24.759 87.1449H16.955C16.9309 87.1449 16.9069 87.1575 16.8897 87.1796C16.8725 87.2016 16.8622 87.2237 16.8622 87.2489V89.483C16.8622 89.505 16.8725 89.5271 16.8897 89.5428C16.9069 89.5617 16.9309 89.568 16.955 89.568H24.9068C25.3915 89.568 25.835 89.6783 26.2372 89.902C26.6395 90.1258 26.9661 90.4188 27.2136 90.7906C27.4611 91.1593 27.5849 91.5721 27.5849 92.029V94.5026C27.5849 94.9468 27.4611 95.3565 27.2136 95.7315C26.9661 96.1064 26.6395 96.4058 26.2372 96.6263C25.835 96.8469 25.3915 96.9604 24.9068 96.9604H16.845L16.8519 96.9635Z" fill="url(#paint1_linear_20_146)"/>
<path d="M32.3061 96.9635C31.811 96.9635 31.3607 96.8532 30.955 96.6295C30.5528 96.4089 30.2296 96.1127 29.9855 95.7409C29.7414 95.3691 29.6211 94.9595 29.6211 94.5026V87.1291C29.6211 86.6754 29.7414 86.2626 29.9855 85.8908C30.2296 85.519 30.5493 85.2259 30.955 85.0022C31.3572 84.7816 31.8076 84.6682 32.3061 84.6682H42.9944V87.1417H32.9386C32.7392 87.1417 32.5845 87.189 32.4745 87.2867C32.3611 87.3844 32.3061 87.5293 32.3061 87.7215V93.9007C32.3061 94.0835 32.3611 94.2253 32.4745 94.3261C32.588 94.4269 32.7427 94.4805 32.9386 94.4805H42.9944V96.9541H32.3061V96.9635Z" fill="url(#paint2_linear_20_146)"/>
<path d="M44.9702 87.1323C44.9702 86.688 45.0906 86.2784 45.3346 85.9034C45.5753 85.5284 45.9019 85.2291 46.311 85.0085C46.7201 84.7879 47.167 84.6745 47.6518 84.6745H55.6758C56.1605 84.6745 56.6074 84.7848 57.0165 85.0085C57.4256 85.2291 57.7557 85.5284 58.0032 85.9034C58.2507 86.2784 58.3745 86.688 58.3745 87.1323V96.9635H55.6551V92.9176H47.6483V96.9635H44.9668V87.1323H44.9702ZM55.6586 90.4598V87.252C55.6586 87.23 55.6448 87.2079 55.6208 87.1827C55.5967 87.1607 55.5692 87.1481 55.5451 87.1481H47.7618C47.7377 87.1481 47.7102 87.1607 47.6862 87.1827C47.6621 87.2048 47.6483 87.2268 47.6483 87.252V90.4598H55.6551H55.6586Z" fill="url(#paint3_linear_20_146)"/>
<path d="M60.4995 96.9635V84.6934H71.2051C71.6898 84.6934 72.1367 84.8037 72.5458 85.0274C72.9549 85.2511 73.285 85.5473 73.5325 85.9223C73.78 86.2973 73.9038 86.7069 73.9038 87.1512V90.3936C73.9038 90.8379 73.78 91.2444 73.5325 91.6131C73.285 91.9817 72.9549 92.2779 72.5458 92.5016C72.1367 92.7254 71.6898 92.8357 71.2051 92.8357L63.1776 92.8514V96.9635H60.4961H60.4995ZM63.2911 90.3558H71.0744C71.0985 90.3558 71.1226 90.3464 71.1501 90.3306C71.1741 90.3148 71.1879 90.2928 71.1879 90.2707V87.2489C71.1879 87.2268 71.1741 87.2048 71.1501 87.1796C71.126 87.1575 71.1019 87.1449 71.0744 87.1449H63.2911C63.267 87.1449 63.243 87.1575 63.2155 87.1796C63.1879 87.2016 63.1776 87.2237 63.1776 87.2489V90.2707C63.1776 90.2928 63.1914 90.3148 63.2155 90.3306C63.2395 90.3495 63.2636 90.3558 63.2911 90.3558Z" fill="url(#paint4_linear_20_146)"/>
<path d="M75.2656 96.9635V84.6745H87.6282V87.1481H77.9815V89.5712H85.7477V92.0637H77.9815V94.4868H87.6282V96.9604H75.2656V96.9635Z" fill="url(#paint5_linear_20_146)"/>
<path d="M100.049 96.9635V87.1512H94.6855V84.6776H108.093V87.1512H102.751V96.9635H100.052H100.049Z" fill="url(#paint6_linear_20_146)"/>
<path d="M109.51 96.9635V84.6745H112.191V89.5712H120.514V84.6745H123.196V96.9635H120.514V92.0637H112.191V96.9635H109.51Z" fill="url(#paint7_linear_20_146)"/>
<path d="M125.375 96.9635V84.6745H137.738V87.1481H128.091V89.5712H135.857V92.0637H128.091V94.4868H137.738V96.9604H125.375V96.9635Z" fill="url(#paint8_linear_20_146)"/>
<path d="M145.484 96.9635V84.6587H148.166V94.4899H158.892V96.9635H145.484Z" fill="url(#paint9_linear_20_146)"/>
<path d="M160.007 87.1323C160.007 86.688 160.128 86.2784 160.372 85.9034C160.612 85.5284 160.939 85.2291 161.348 85.0085C161.757 84.7879 162.204 84.6745 162.689 84.6745H170.713C171.198 84.6745 171.645 84.7848 172.054 85.0085C172.463 85.2291 172.793 85.5284 173.04 85.9034C173.288 86.2784 173.412 86.688 173.412 87.1323V96.9635H170.692V92.9176H162.685V96.9635H160.004V87.1323H160.007ZM170.696 90.4598V87.252C170.696 87.23 170.682 87.2079 170.658 87.1827C170.634 87.1607 170.606 87.1481 170.582 87.1481H162.799C162.775 87.1481 162.747 87.1607 162.723 87.1827C162.699 87.2048 162.685 87.2268 162.685 87.252V90.4598H170.692H170.696Z" fill="url(#paint10_linear_20_146)"/>
<path d="M175.596 84.6745H185.799C186.284 84.6745 186.728 84.7848 187.13 85.0085C187.532 85.2291 187.859 85.5284 188.106 85.9034C188.354 86.2784 188.477 86.688 188.477 87.1323V89.4861C188.477 89.6342 188.464 89.7729 188.44 89.9052C188.416 90.0375 188.378 90.1636 188.33 90.2896C188.529 90.5291 188.691 90.7875 188.814 91.0648C188.938 91.3421 189 91.6257 189 91.9093V94.5026C189 94.9468 188.876 95.3565 188.629 95.7315C188.381 96.1064 188.051 96.4058 187.642 96.6263C187.233 96.8469 186.786 96.9604 186.301 96.9604H175.596V84.6713V84.6745ZM178.387 89.4704H185.648C185.686 89.4704 185.713 89.4609 185.731 89.4451C185.751 89.4262 185.758 89.4073 185.758 89.3853V87.252C185.758 87.23 185.748 87.2079 185.731 87.1827C185.713 87.1606 185.686 87.148 185.648 87.148H178.387C178.363 87.148 178.336 87.1606 178.312 87.1827C178.288 87.2048 178.274 87.2268 178.274 87.252V89.3853C178.274 89.4073 178.288 89.4262 178.312 89.4451C178.336 89.4609 178.36 89.4704 178.387 89.4704ZM178.387 94.4868H186.171C186.195 94.4868 186.219 94.4742 186.246 94.4521C186.274 94.4301 186.284 94.408 186.284 94.3828V92.0447C186.284 92.0227 186.27 92.0006 186.246 91.9754C186.222 91.9502 186.198 91.9408 186.171 91.9408H178.387C178.363 91.9408 178.336 91.9534 178.312 91.9754C178.288 91.9975 178.274 92.0195 178.274 92.0447V94.3828C178.274 94.4049 178.288 94.4269 178.312 94.4521C178.336 94.4742 178.36 94.4868 178.387 94.4868Z" fill="url(#paint11_linear_20_146)"/>
<path d="M6.00977 101L182.3 99.9602" stroke="url(#paint12_linear_20_146)" stroke-width="2" stroke-miterlimit="10"/>
<path d="M107.105 47.0859C107.105 46.5943 106.672 46.1973 106.136 46.1973C105.599 46.1973 105.166 46.5943 105.166 47.0859C105.166 47.3064 105.262 47.5018 105.407 47.6562C105.018 50.322 103.351 52.5592 100.955 53.911C100.855 53.8795 100.755 53.8543 100.645 53.8543C100.109 53.8543 99.6758 54.2513 99.6758 54.7429C99.6758 55.2344 100.109 55.6315 100.645 55.6315C101.109 55.6315 101.477 55.3258 101.573 54.9288C104.344 53.4068 106.232 50.8356 106.72 47.7791C106.947 47.6152 107.102 47.3758 107.102 47.089L107.105 47.0859Z" fill="#60FF57"/>
<path d="M88.4259 53.4604C88.3571 53.4604 88.2918 53.4667 88.2265 53.4793C86.1088 52.1748 84.6855 50.2999 84.3245 47.8925C84.4311 47.7381 84.4964 47.5585 84.4964 47.36C84.4964 46.8117 84.0117 46.3706 83.4169 46.3674C82.8187 46.3674 82.334 46.8117 82.334 47.36C82.334 47.7287 82.5574 48.0469 82.884 48.2171C83.4203 50.8545 85.0362 53.0665 87.3567 54.5349C87.4048 55.0422 87.8621 55.4424 88.4293 55.4424C89.0275 55.4424 89.5123 54.9981 89.5123 54.4498C89.5123 53.9015 89.0275 53.4572 88.4293 53.4572L88.4259 53.4604Z" fill="#60FF57"/>
<path d="M99.1074 35.197C98.9596 35.197 98.8221 35.2254 98.6949 35.2727C97.4022 34.7811 96.0065 34.5385 94.456 34.5385C92.658 34.5385 91.1075 34.8031 89.667 35.4334C89.533 35.3766 89.3817 35.3451 89.2236 35.3451C88.6254 35.3451 88.1406 35.7894 88.1406 36.3377C88.1406 36.886 88.6254 37.3303 89.2236 37.3303C89.6498 37.3303 90.0108 37.1034 90.1896 36.7788C91.465 36.1959 92.8505 35.9438 94.456 35.9438C95.7864 35.9438 96.9828 36.1329 98.0967 36.5457C98.2514 36.9175 98.6433 37.1853 99.104 37.1853C99.7022 37.1853 100.187 36.741 100.187 36.1928C100.187 35.6445 99.7022 35.2002 99.104 35.2002L99.1074 35.197Z" fill="#60FF57"/>
<g opacity="0.7">
<path opacity="0.71" d="M91.4165 27.3478H92.6782V29.6355H91.6812V35.2475H91.8737V29.8119H92.8707V27.1682H91.609V18.6541H89.6254V16.2121H91.5265V18.046H90.0241V16.94H90.6636C90.7048 17.0408 90.808 17.1164 90.9317 17.1164C91.0899 17.1164 91.2205 16.9967 91.2205 16.8517C91.2205 16.7068 91.0933 16.5871 90.9317 16.5871C90.808 16.5871 90.7014 16.6595 90.6636 16.7635H89.8316V18.2256H91.7225V16.2152H92.6816V26.1315H94.0018V31.6836H92.6816V35.2506H92.8741V31.8601H94.1943V25.9519H92.8741V16.0356H92.4582V14.1608H91.1174C91.0761 14.0599 90.973 13.9843 90.8492 13.9843C90.6911 13.9843 90.5605 14.104 90.5605 14.249C90.5605 14.3939 90.6877 14.5137 90.8492 14.5137C90.973 14.5137 91.0761 14.4412 91.1174 14.3372H92.2656V16.0325H87.1604V16.2089H89.4363V18.651H85.5996V18.8274H91.4234V27.3415L91.4165 27.3478ZM90.9352 16.7667C90.9868 16.7667 91.028 16.8045 91.028 16.8517C91.028 16.899 90.9868 16.9368 90.9352 16.9368C90.8836 16.9368 90.8389 16.899 90.8389 16.8517C90.8389 16.8045 90.8802 16.7667 90.9352 16.7667ZM90.8492 14.3372C90.7977 14.3372 90.7564 14.2994 90.7564 14.2521C90.7564 14.2049 90.7977 14.1671 90.8492 14.1671C90.9008 14.1671 90.9421 14.2049 90.9421 14.2521C90.9421 14.2994 90.9008 14.3372 90.8492 14.3372Z" fill="#60FF57"/>
<path opacity="0.71" d="M94.1956 35.0395V33.2245C94.3056 33.1867 94.3881 33.0922 94.3881 32.9787C94.3881 32.8338 94.2575 32.714 94.0993 32.714C93.9412 32.714 93.8105 32.8338 93.8105 32.9787C93.8105 33.0922 93.8896 33.1867 94.0031 33.2245V35.0395H94.1956ZM94.0993 32.8905C94.1509 32.8905 94.1956 32.9283 94.1956 32.9756C94.1956 33.0228 94.1543 33.0607 94.0993 33.0607C94.0443 33.0607 94.0065 33.0228 94.0065 32.9756C94.0065 32.9283 94.0478 32.8905 94.0993 32.8905Z" fill="#60FF57"/>
<path opacity="0.71" d="M91.4343 28.6681C91.4721 28.7752 91.5752 28.854 91.7059 28.854C91.864 28.854 91.9946 28.7343 91.9946 28.5893C91.9946 28.4444 91.8674 28.3246 91.7059 28.3246C91.5855 28.3246 91.4824 28.394 91.4412 28.4885H89.4609V31.9389H90.9323V35.4869H91.1249V31.7624H89.6535V28.6681H91.4377H91.4343ZM91.7059 28.5042C91.7574 28.5042 91.7987 28.5421 91.7987 28.5893C91.7987 28.6366 91.7574 28.6744 91.7059 28.6744C91.6543 28.6744 91.613 28.6366 91.613 28.5893C91.613 28.5421 91.6543 28.5042 91.7059 28.5042Z" fill="#60FF57"/>
<path opacity="0.71" d="M95.4738 26.85H96.5602V35.3451H96.7527V26.6704H95.6663V10.7104H97.399V12.7869H95.9861V25.7503H97.1996V35.2475H97.3922V33.0669H97.8425V34.173H99.7093V31.2204C99.8159 31.1795 99.8881 31.0881 99.8881 30.9778C99.8881 30.8329 99.7574 30.7131 99.5993 30.7131C99.4411 30.7131 99.3105 30.8329 99.3105 30.9778C99.3105 31.0975 99.3964 31.1921 99.5133 31.2267V33.9965H98.035V33.0669H98.4717V30.0924H100.985V32.6951C100.875 32.7329 100.792 32.8275 100.792 32.9409C100.792 33.0859 100.919 33.2056 101.081 33.2056C101.243 33.2056 101.37 33.0859 101.37 32.9409C101.37 32.8275 101.291 32.7329 101.181 32.6951V29.9159H98.4751V29.0116H99.8331V28.2616H100.723C100.765 28.3625 100.868 28.4381 100.992 28.4381C101.15 28.4381 101.28 28.3183 101.28 28.1734C101.28 28.0284 101.153 27.9087 100.992 27.9087C100.868 27.9087 100.761 27.9812 100.723 28.0852H99.6405V28.8351H98.4785V28.1482C98.5885 28.1104 98.6711 28.0158 98.6711 27.9024C98.6711 27.7575 98.5439 27.6377 98.3823 27.6377C98.2207 27.6377 98.0935 27.7575 98.0935 27.9024C98.0935 28.0158 98.1726 28.1104 98.286 28.1482V32.8936H97.399V26.5916H99.3414C99.3827 26.6924 99.4858 26.768 99.6096 26.768C99.7677 26.768 99.8984 26.6483 99.8984 26.5033C99.8984 26.3584 99.7677 26.2387 99.6096 26.2387C99.4858 26.2387 99.3827 26.3111 99.3414 26.4151H97.399V25.5801H96.1855V21.6129H98.2929C98.2929 21.7075 98.2929 21.8776 98.2929 22.0825H97.2718C97.2306 21.9816 97.1274 21.906 97.0037 21.906C96.8455 21.906 96.7149 22.0257 96.7149 22.1707C96.7149 22.3156 96.8455 22.4354 97.0037 22.4354C97.1274 22.4354 97.2306 22.3629 97.2718 22.2589H98.2929C98.2929 22.5331 98.2895 22.8387 98.286 23.0782V23.1664H99.197V24.0865H100.593C100.634 24.1873 100.737 24.2598 100.861 24.2598C101.019 24.2598 101.15 24.1401 101.15 23.9951C101.15 23.8502 101.023 23.7304 100.861 23.7304C100.734 23.7304 100.631 23.8061 100.593 23.9069H99.393V23.1633H101.545V24.7073H104.034V25.4698C103.924 25.5076 103.842 25.6022 103.842 25.7156C103.842 25.8605 103.969 25.9803 104.13 25.9803C104.292 25.9803 104.419 25.8605 104.419 25.7156C104.419 25.6022 104.34 25.5076 104.227 25.4698V25.1011H105.117V26.6861C105.007 26.7239 104.925 26.8185 104.925 26.9319C104.925 27.0768 105.052 27.1966 105.213 27.1966C105.375 27.1966 105.502 27.0768 105.502 26.9319C105.502 26.8185 105.423 26.7239 105.31 26.6861V25.9834H105.798V27.3636H107.857V27.1871H105.994V25.807H105.313V24.9247H104.23V24.5308H101.741V23.1633H104.904V22.9868H98.4854C98.4957 22.1297 98.4957 21.7737 98.4854 21.6098H100.957V20.0028H101.69V22.2274C101.576 22.2621 101.494 22.3597 101.494 22.4732C101.494 22.6181 101.621 22.7379 101.782 22.7379C101.944 22.7379 102.071 22.6181 102.071 22.4732C102.071 22.3597 101.992 22.2652 101.882 22.2274V19.8232H100.954V19.048H104.68V18.8716H100.758V21.4302H96.1786V19.3978H97.1996V20.5416H99.8537V18.4399H102.219V18.2634H99.6612V20.3651H97.3956V19.4009H97.9285V17.4662H99.6233C99.6646 17.567 99.7677 17.6427 99.8915 17.6427C100.05 17.6427 100.18 17.5229 100.18 17.378C100.18 17.233 100.053 17.1133 99.8915 17.1133C99.7677 17.1133 99.6646 17.1858 99.6233 17.2897H97.9285V15.6859H99.9431V15.5094H99.008V13.7858H98.8154V15.5094H97.736V19.2276H96.1855V18.2004H97.0999V15.4401C97.21 15.4023 97.2925 15.3077 97.2925 15.1943C97.2925 15.0494 97.1653 14.9296 97.0037 14.9296C96.8421 14.9296 96.7149 15.0494 96.7149 15.1943C96.7149 15.3077 96.794 15.4023 96.9074 15.4401V18.0239H96.1855V14.5452H98.396V13.6755H100.861V13.499H98.2035V14.3687H96.1855V13.7984H97.1584C97.1996 13.8992 97.3028 13.9749 97.4265 13.9749C97.5847 13.9749 97.7153 13.8551 97.7153 13.7102C97.7153 13.5652 97.5847 13.4455 97.4265 13.4455C97.3028 13.4455 97.1996 13.518 97.1584 13.6219H96.1855V12.976H97.5984V10.5434H95.4773V16.6532H94.9238C94.8825 16.5524 94.7794 16.4768 94.6556 16.4768C94.4975 16.4768 94.3668 16.5965 94.3668 16.7415C94.3668 16.8864 94.494 17.0061 94.6556 17.0061C94.7794 17.0061 94.8859 16.9337 94.9238 16.8297H95.4773V23.9353H94.1984V21.1561H94.6728C94.7141 21.2569 94.8172 21.3325 94.941 21.3325C95.0991 21.3325 95.2297 21.2128 95.2297 21.0678C95.2297 20.9229 95.1025 20.8031 94.941 20.8031C94.8172 20.8031 94.7141 20.8756 94.6728 20.9796H94.1984V14.9706H94.8378V10.3732H94.1984V9.3712H94.8138C94.8413 9.46888 94.9238 9.54766 95.0372 9.54766C95.1747 9.54766 95.2882 9.44367 95.2882 9.31763C95.2882 9.19159 95.1747 9.08761 95.0372 9.08761C94.9238 9.08761 94.8413 9.16638 94.8138 9.26406H94.1984V7.65704H94.0059V10.5497H94.6453V14.791H94.0059V24.1117H95.4773V26.8531L95.4738 26.85ZM99.6062 30.8927C99.6577 30.8927 99.7024 30.9305 99.7024 30.9778C99.7024 31.0251 99.6612 31.0629 99.6062 31.0629C99.5511 31.0629 99.5133 31.0251 99.5133 30.9778C99.5133 30.9305 99.5546 30.8927 99.6062 30.8927ZM101.088 33.026C101.036 33.026 100.995 32.9882 100.995 32.9409C100.995 32.8936 101.036 32.8558 101.088 32.8558C101.139 32.8558 101.181 32.8936 101.181 32.9409C101.181 32.9882 101.139 33.026 101.088 33.026ZM100.995 28.0852C101.047 28.0852 101.088 28.123 101.088 28.1702C101.088 28.2175 101.047 28.2553 100.995 28.2553C100.943 28.2553 100.899 28.2175 100.899 28.1702C100.899 28.123 100.94 28.0852 100.995 28.0852ZM98.3823 27.811C98.4338 27.811 98.4751 27.8488 98.4751 27.8961C98.4751 27.9434 98.4338 27.9812 98.3823 27.9812C98.3307 27.9812 98.2894 27.9434 98.2894 27.8961C98.2894 27.8488 98.3307 27.811 98.3823 27.811ZM99.6062 26.412C99.6577 26.412 99.7024 26.4498 99.7024 26.497C99.7024 26.5443 99.6612 26.5821 99.6062 26.5821C99.5511 26.5821 99.5133 26.5443 99.5133 26.497C99.5133 26.4498 99.5546 26.412 99.6062 26.412ZM97.0002 22.2526C96.9487 22.2526 96.904 22.2148 96.904 22.1675C96.904 22.1203 96.9452 22.0825 97.0002 22.0825C97.0552 22.0825 97.0931 22.1203 97.0931 22.1675C97.0931 22.2148 97.0518 22.2526 97.0002 22.2526ZM100.858 23.9037C100.909 23.9037 100.95 23.9416 100.95 23.9888C100.95 24.0361 100.909 24.0739 100.858 24.0739C100.806 24.0739 100.765 24.0361 100.765 23.9888C100.765 23.9416 100.806 23.9037 100.858 23.9037ZM105.21 27.017C105.158 27.017 105.117 26.9792 105.117 26.9319C105.117 26.8846 105.158 26.8468 105.21 26.8468C105.261 26.8468 105.306 26.8846 105.306 26.9319C105.306 26.9792 105.265 27.017 105.21 27.017ZM104.127 25.8007C104.075 25.8007 104.034 25.7629 104.034 25.7156C104.034 25.6683 104.075 25.6305 104.127 25.6305C104.179 25.6305 104.22 25.6683 104.22 25.7156C104.22 25.7629 104.179 25.8007 104.127 25.8007ZM101.782 22.5583C101.731 22.5583 101.69 22.5204 101.69 22.4732C101.69 22.4259 101.731 22.3881 101.782 22.3881C101.834 22.3881 101.879 22.4259 101.879 22.4732C101.879 22.5204 101.837 22.5583 101.782 22.5583ZM99.8949 17.2866C99.9465 17.2866 99.9878 17.3244 99.9878 17.3717C99.9878 17.4189 99.9465 17.4567 99.8949 17.4567C99.8434 17.4567 99.8021 17.4189 99.8021 17.3717C99.8021 17.3244 99.8434 17.2866 99.8949 17.2866ZM97.0002 15.0998C97.0518 15.0998 97.0931 15.1376 97.0931 15.1848C97.0931 15.2321 97.0518 15.2699 97.0002 15.2699C96.9487 15.2699 96.9074 15.2321 96.9074 15.1848C96.9074 15.1376 96.9487 15.0998 97.0002 15.0998ZM97.4265 13.6156C97.4781 13.6156 97.5228 13.6534 97.5228 13.7007C97.5228 13.748 97.4816 13.7858 97.4265 13.7858C97.3715 13.7858 97.3337 13.748 97.3337 13.7007C97.3337 13.6534 97.375 13.6156 97.4265 13.6156ZM94.6522 16.8202C94.6006 16.8202 94.5594 16.7824 94.5594 16.7352C94.5594 16.6879 94.6006 16.6501 94.6522 16.6501C94.7037 16.6501 94.7484 16.6879 94.7484 16.7352C94.7484 16.7824 94.7072 16.8202 94.6522 16.8202ZM94.941 20.9764C94.9925 20.9764 95.0338 21.0143 95.0338 21.0615C95.0338 21.1088 94.9925 21.1466 94.941 21.1466C94.8894 21.1466 94.8481 21.1088 94.8481 21.0615C94.8481 21.0143 94.8894 20.9764 94.941 20.9764ZM95.0338 9.19159C95.106 9.19159 95.1679 9.24516 95.1679 9.31448C95.1679 9.3838 95.1094 9.43737 95.0338 9.43737C94.9581 9.43737 94.8997 9.3838 94.8997 9.31448C94.8997 9.24516 94.9581 9.19159 95.0338 9.19159Z" fill="#60FF57"/>
<path opacity="0.71" d="M92.8749 12.3426H93.3424V25.4635H94.721V31.3717H95.1198V34.8599H95.3123V32.8558H95.9896V29.9002H95.3536V28.5925C95.4636 28.5547 95.5461 28.4602 95.5461 28.3467C95.5461 28.2018 95.4154 28.082 95.2573 28.082C95.0992 28.082 94.9685 28.2018 94.9685 28.3467C94.9685 28.4602 95.0476 28.5547 95.161 28.5925V30.0766H95.797V32.6762H95.3123V31.1921H94.9135V25.2839H93.5349V12.163H93.1568V10.994C93.2633 10.9688 93.3493 10.8932 93.3493 10.786C93.3493 10.66 93.2358 10.556 93.0983 10.556C92.9608 10.556 92.8474 10.66 92.8474 10.786C92.8474 10.89 92.9333 10.9656 93.0399 10.994V12.163H92.2423V10.1495H92.0498V12.3426H92.6823V13.0957H89.1895V13.2722H92.8783V12.3426H92.8749ZM95.2607 28.2585C95.3123 28.2585 95.357 28.2963 95.357 28.3436C95.357 28.3908 95.3157 28.4286 95.2607 28.4286C95.2057 28.4286 95.1679 28.3908 95.1679 28.3436C95.1679 28.2963 95.2092 28.2585 95.2607 28.2585ZM92.9677 10.7892C92.9677 10.723 93.0261 10.6663 93.1018 10.6663C93.1774 10.6663 93.2358 10.7199 93.2358 10.7892C93.2358 10.8585 93.1774 10.9121 93.1018 10.9121C93.0261 10.9121 92.9677 10.8585 92.9677 10.7892Z" fill="#60FF57"/>
<path opacity="0.71" d="M123.734 59.7404H115.556V58.8266H104.716V51.907H104.523V56.9234H102.78V54.0087H102.588V57.0999H103.234V59.148C103.124 59.1858 103.042 59.2804 103.042 59.3938C103.042 59.5388 103.172 59.6585 103.33 59.6585C103.489 59.6585 103.619 59.5388 103.619 59.3938C103.619 59.2804 103.54 59.1858 103.427 59.148V57.0999H104.52V59.0031H106.748V60.2792H108.769C108.81 60.3801 108.914 60.4557 109.037 60.4557C109.195 60.4557 109.326 60.336 109.326 60.191C109.326 60.0461 109.199 59.9263 109.037 59.9263C108.914 59.9263 108.81 59.9988 108.769 60.1028H106.94V59.0031H113.407V62.1825H113.926V63.5595H110.048V64.2464H109.285V62.715H111.196C111.238 62.8158 111.341 62.8915 111.464 62.8915C111.623 62.8915 111.753 62.7717 111.753 62.6268C111.753 62.4818 111.626 62.3621 111.464 62.3621C111.341 62.3621 111.238 62.4346 111.196 62.5385H109.089V64.2464H108.119V65.3871H106.94V64.7001C107.05 64.6623 107.133 64.5678 107.133 64.4544C107.133 64.3094 107.006 64.1897 106.844 64.1897C106.682 64.1897 106.555 64.3094 106.555 64.4544C106.555 64.5678 106.634 64.6623 106.748 64.7001V65.5667H108.315V64.426H110.048V67.1642H110.241V63.7391H111.179V65.9952H113.854V64.5426H112.85C112.809 64.4418 112.706 64.3661 112.582 64.3661C112.424 64.3661 112.293 64.4859 112.293 64.6308C112.293 64.7758 112.424 64.8955 112.582 64.8955C112.706 64.8955 112.809 64.823 112.85 64.719H113.658V65.8156H111.368V63.7391H114.115V62.1856H114.995V67.6936H115.188V62.006H113.593V59.0031H115.349V59.9169H120.757V62.0344H119.265V60.8149H115.614C115.573 60.7141 115.47 60.6385 115.346 60.6385C115.188 60.6385 115.057 60.7582 115.057 60.9032C115.057 61.0481 115.188 61.1678 115.346 61.1678C115.47 61.1678 115.573 61.0954 115.614 60.9914H119.072V62.0312H117.388V64.2622C117.278 64.3 117.195 64.3945 117.195 64.5079C117.195 64.6529 117.323 64.7726 117.484 64.7726C117.646 64.7726 117.773 64.6529 117.773 64.5079C117.773 64.3945 117.694 64.3 117.58 64.2622V62.2108H120.95V59.9137H122.115L122.194 63.8053H119.069V65.7274C118.959 65.7652 118.877 65.8597 118.877 65.9732C118.877 66.1181 119.007 66.2378 119.165 66.2378C119.323 66.2378 119.454 66.1181 119.454 65.9732C119.454 65.8597 119.375 65.7652 119.262 65.7274V63.9817H121.128V67.5203H121.321V63.9817H122.387L122.304 59.9137H123.521V65.5824H126.316V68.1757H126.509V65.406H123.714V59.7373L123.734 59.7404ZM103.327 59.4789C103.275 59.4789 103.231 59.4411 103.231 59.3938C103.231 59.3465 103.272 59.3087 103.327 59.3087C103.382 59.3087 103.42 59.3465 103.42 59.3938C103.42 59.4411 103.379 59.4789 103.327 59.4789ZM109.037 60.1028C109.089 60.1028 109.13 60.1406 109.13 60.1879C109.13 60.2351 109.089 60.2729 109.037 60.2729C108.986 60.2729 108.945 60.2351 108.945 60.1879C108.945 60.1406 108.986 60.1028 109.037 60.1028ZM111.468 62.5417C111.519 62.5417 111.561 62.5795 111.561 62.6268C111.561 62.674 111.519 62.7118 111.468 62.7118C111.416 62.7118 111.375 62.674 111.375 62.6268C111.375 62.5795 111.416 62.5417 111.468 62.5417ZM106.844 64.3661C106.896 64.3661 106.937 64.4039 106.937 64.4512C106.937 64.4985 106.896 64.5363 106.844 64.5363C106.792 64.5363 106.751 64.4985 106.751 64.4512C106.751 64.4039 106.792 64.3661 106.844 64.3661ZM112.585 64.7159C112.534 64.7159 112.489 64.6781 112.489 64.6308C112.489 64.5836 112.53 64.5457 112.585 64.5457C112.64 64.5457 112.678 64.5836 112.678 64.6308C112.678 64.6781 112.637 64.7159 112.585 64.7159ZM115.356 60.9914C115.305 60.9914 115.26 60.9536 115.26 60.9063C115.26 60.859 115.301 60.8212 115.356 60.8212C115.411 60.8212 115.449 60.859 115.449 60.9063C115.449 60.9536 115.408 60.9914 115.356 60.9914ZM117.498 64.5993C117.446 64.5993 117.405 64.5615 117.405 64.5142C117.405 64.467 117.446 64.4292 117.498 64.4292C117.55 64.4292 117.591 64.467 117.591 64.5142C117.591 64.5615 117.55 64.5993 117.498 64.5993ZM119.183 66.0645C119.131 66.0645 119.086 66.0267 119.086 65.9795C119.086 65.9322 119.127 65.8944 119.183 65.8944C119.238 65.8944 119.275 65.9322 119.275 65.9795C119.275 66.0267 119.234 66.0645 119.183 66.0645Z" fill="#60FF57"/>
<path opacity="0.71" d="M128.1 62.715H130.486V62.5385H125.927V59.4505H126.618V61.3978C126.508 61.4357 126.426 61.5302 126.426 61.6436C126.426 61.7886 126.553 61.9083 126.715 61.9083C126.876 61.9083 127.003 61.7886 127.003 61.6436C127.003 61.5302 126.924 61.4357 126.811 61.3978V59.2741H125.924V58.3382H117.412V57.1187H107.198V51.7967H108.387V56.0379H107.872C107.834 55.9308 107.731 55.852 107.6 55.852C107.442 55.852 107.311 55.9718 107.311 56.1167C107.311 56.2617 107.442 56.3814 107.6 56.3814C107.72 56.3814 107.824 56.3121 107.865 56.2176H108.58V51.6202H107.194V49.8682H105.207V50.0447H106.998V54.0055H106.043V51.2484H105.08V51.4248H105.847V54.182H106.998V55.5432H105.592V57.8498C105.482 57.8876 105.4 57.9821 105.4 58.0956C105.4 58.2405 105.527 58.3603 105.689 58.3603C105.85 58.3603 105.977 58.2405 105.977 58.0956C105.977 57.9821 105.898 57.8876 105.785 57.8498V55.7228H106.998V57.3015H109.082V58.1838H111.976C112.018 58.2846 112.121 58.3603 112.245 58.3603C112.403 58.3603 112.533 58.2405 112.533 58.0956C112.533 57.9506 112.403 57.8309 112.245 57.8309C112.121 57.8309 112.018 57.9034 111.976 58.0073H109.274V57.3015H117.209V58.521H125.721V62.7213H126.608V64.0321H124.807V59.4631C124.917 59.4253 124.999 59.3308 124.999 59.2173C124.999 59.0724 124.872 58.9526 124.71 58.9526C124.549 58.9526 124.422 59.0724 124.422 59.2173C124.422 59.3308 124.501 59.4253 124.614 59.4631V64.2086H126.804V62.7213H127.22V66.2H128.069V67.3754H128.262V66.0204H127.412V65.0909H129.761V67.5266H129.953V64.9144H127.409V62.7213H127.89V64.2086H129.094C129.135 64.3094 129.238 64.385 129.362 64.385C129.52 64.385 129.651 64.2653 129.651 64.1203C129.651 63.9754 129.523 63.8556 129.362 63.8556C129.238 63.8556 129.135 63.9281 129.094 64.0321H128.083V62.7213L128.1 62.715ZM126.718 61.7287C126.666 61.7287 126.625 61.6909 126.625 61.6436C126.625 61.5964 126.666 61.5585 126.718 61.5585C126.77 61.5585 126.811 61.5964 126.811 61.6436C126.811 61.6909 126.77 61.7287 126.718 61.7287ZM107.607 56.2018C107.555 56.2018 107.511 56.164 107.511 56.1167C107.511 56.0695 107.552 56.0316 107.607 56.0316C107.662 56.0316 107.7 56.0695 107.7 56.1167C107.7 56.164 107.658 56.2018 107.607 56.2018ZM105.699 58.1775C105.647 58.1775 105.606 58.1397 105.606 58.0924C105.606 58.0451 105.647 58.0073 105.699 58.0073C105.75 58.0073 105.792 58.0451 105.792 58.0924C105.792 58.1397 105.75 58.1775 105.699 58.1775ZM112.255 58.0042C112.306 58.0042 112.351 58.042 112.351 58.0893C112.351 58.1365 112.31 58.1743 112.255 58.1743C112.2 58.1743 112.162 58.1365 112.162 58.0893C112.162 58.042 112.203 58.0042 112.255 58.0042ZM124.724 59.126C124.776 59.126 124.817 59.1638 124.817 59.211C124.817 59.2583 124.776 59.2961 124.724 59.2961C124.673 59.2961 124.631 59.2583 124.631 59.211C124.631 59.1638 124.673 59.126 124.724 59.126ZM129.379 64.029C129.431 64.029 129.472 64.0668 129.472 64.114C129.472 64.1613 129.431 64.1991 129.379 64.1991C129.327 64.1991 129.286 64.1613 129.286 64.114C129.286 64.0668 129.327 64.029 129.379 64.029Z" fill="#60FF57"/>
<path opacity="0.71" d="M103.552 53.0886V55.5149C103.442 55.5527 103.359 55.6472 103.359 55.7607C103.359 55.9056 103.49 56.0254 103.648 56.0254C103.806 56.0254 103.937 55.9056 103.937 55.7607C103.937 55.6472 103.858 55.5527 103.744 55.5149V53.0886H103.552ZM103.648 55.8457C103.597 55.8457 103.552 55.8079 103.552 55.7607C103.552 55.7134 103.593 55.6756 103.648 55.6756C103.703 55.6756 103.741 55.7134 103.741 55.7607C103.741 55.8079 103.7 55.8457 103.648 55.8457Z" fill="#60FF57"/>
<path opacity="0.71" d="M64.6405 56.5484H70.8046V57.1975H65.8231C65.7819 57.0967 65.6787 57.0211 65.5549 57.0211C65.3968 57.0211 65.2662 57.1408 65.2662 57.2858C65.2662 57.4307 65.3934 57.5504 65.5549 57.5504C65.6787 57.5504 65.7853 57.478 65.8231 57.374H71.0005V56.5453H71.6056V57.6418H74.9575V56.4507C74.9575 56.3846 75.016 56.331 75.0882 56.331H76.8346C76.9274 56.331 77.0031 56.2617 77.0031 56.1766V49.9344C77.0031 49.7989 77.1234 49.6886 77.2712 49.6886H83.5385V49.5122H77.2712C77.0168 49.5122 76.8071 49.7012 76.8071 49.9375V50.823H75.6967V48.7055H74.5484V49.5594C74.4384 49.5972 74.3559 49.6918 74.3559 49.8052C74.3559 49.9502 74.4831 50.0699 74.6447 50.0699C74.8063 50.0699 74.9335 49.9502 74.9335 49.8052C74.9335 49.6918 74.8544 49.5972 74.7409 49.5594V48.8851H75.5007V50.8261H74.3525V52.2662H73.352C73.3108 52.1653 73.2077 52.0897 73.0839 52.0897C72.9257 52.0897 72.7951 52.2094 72.7951 52.3544C72.7951 52.4993 72.9257 52.6191 73.0839 52.6191C73.2077 52.6191 73.3108 52.5466 73.352 52.4426H74.3525V53.6904C74.2425 53.7282 74.1599 53.8228 74.1599 53.9362C74.1599 54.0812 74.2906 54.2009 74.4487 54.2009C74.6069 54.2009 74.7375 54.0812 74.7375 53.9362C74.7375 53.8228 74.6584 53.7282 74.545 53.6904V51.0026H76.8071V55.3542H75.7723V52.222C75.8823 52.1842 75.9648 52.0897 75.9648 51.9763C75.9648 51.8313 75.8376 51.7116 75.676 51.7116C75.5145 51.7116 75.3873 51.8313 75.3873 51.9763C75.3873 52.0897 75.4663 52.1842 75.5798 52.222V55.3542H71.1999V53.4919H68.6078V52.3796H69.7285V50.6717H70.3198C70.3611 50.7726 70.4642 50.8482 70.588 50.8482C70.7461 50.8482 70.8768 50.7285 70.8768 50.5835C70.8768 50.4386 70.7496 50.3188 70.588 50.3188C70.4642 50.3188 70.3611 50.3913 70.3198 50.4953H69.7285V48.5984H72.1694V46.421H72.8054L73.1389 46.1154C73.1698 46.1248 73.2042 46.1343 73.2386 46.1343C73.3967 46.1343 73.5274 46.0145 73.5274 45.8696C73.5274 45.7246 73.3967 45.6049 73.2386 45.6049C73.0805 45.6049 72.9498 45.7246 72.9498 45.8696C72.9498 45.9168 72.967 45.9578 72.9911 45.9956L72.7229 46.2414H72.166V45.5135H69.6288V45.69H71.9735V48.4188H69.5326V51.0121H68.9206V49.2065C69.0306 49.1687 69.1131 49.0742 69.1131 48.9607C69.1131 48.8158 68.9859 48.696 68.8244 48.696C68.6628 48.696 68.5356 48.8158 68.5356 48.9607C68.5356 49.0742 68.6147 49.1687 68.7281 49.2065V51.1885H69.5326V52.2031H68.6078V51.7872H68.2537V51.3492C68.3637 51.3114 68.4462 51.2169 68.4462 51.1034C68.4462 50.9585 68.319 50.8387 68.1574 50.8387C67.9958 50.8387 67.8686 50.9585 67.8686 51.1034C67.8686 51.2169 67.9477 51.3114 68.0612 51.3492V51.7872H67.2945V50.3062H67.102V51.9637H68.4153V53.4919H67.3289V54.4215H63.2138V54.5979H67.5214V53.6684H69.8764V55.1399C69.7663 55.1777 69.6838 55.2722 69.6838 55.3857C69.6838 55.5306 69.8145 55.6504 69.9726 55.6504C70.1308 55.6504 70.2614 55.5306 70.2614 55.3857C70.2614 55.2722 70.1823 55.1777 70.0689 55.1399V53.6684H71.004V55.5306H76.8071V56.1577H75.0847C74.906 56.1577 74.7616 56.29 74.7616 56.4539V57.4654H71.7981V56.3688H68.429V55.351H66.5244C66.4832 55.2502 66.38 55.1746 66.2563 55.1746C66.0981 55.1746 65.9675 55.2943 65.9675 55.4392C65.9675 55.5842 66.0981 55.7039 66.2563 55.7039C66.38 55.7039 66.4832 55.6315 66.5244 55.5275H68.2331V56.3688H64.8364V55.3699H62.3887V55.5464H64.6405V56.5453V56.5484ZM65.5515 57.374C65.4999 57.374 65.4587 57.3362 65.4587 57.2889C65.4587 57.2416 65.4999 57.2038 65.5515 57.2038C65.6031 57.2038 65.6478 57.2416 65.6478 57.2889C65.6478 57.3362 65.6065 57.374 65.5515 57.374ZM74.6412 49.8934C74.5897 49.8934 74.5484 49.8556 74.5484 49.8084C74.5484 49.7642 74.5862 49.7296 74.6344 49.7233H74.6481C74.6963 49.7264 74.7341 49.7611 74.7341 49.8084C74.7341 49.8556 74.6928 49.8934 74.6412 49.8934ZM73.0805 52.4395C73.0289 52.4395 72.9842 52.4017 72.9842 52.3544C72.9842 52.3071 73.0254 52.2693 73.0805 52.2693C73.1355 52.2693 73.1733 52.3071 73.1733 52.3544C73.1733 52.4017 73.132 52.4395 73.0805 52.4395ZM74.4453 54.0244C74.3937 54.0244 74.349 53.9866 74.349 53.9394C74.349 53.8921 74.3903 53.8543 74.4453 53.8543C74.5003 53.8543 74.5381 53.8921 74.5381 53.9394C74.5381 53.9866 74.4969 54.0244 74.4453 54.0244ZM75.6726 51.8912C75.7242 51.8912 75.7654 51.929 75.7654 51.9763C75.7654 52.0235 75.7242 52.0613 75.6726 52.0613C75.621 52.0613 75.5798 52.0235 75.5798 51.9763C75.5798 51.929 75.621 51.8912 75.6726 51.8912ZM73.2317 45.7845C73.2833 45.7845 73.328 45.8223 73.328 45.8696C73.328 45.9168 73.2867 45.9546 73.2317 45.9546C73.1767 45.9546 73.1389 45.9168 73.1389 45.8696C73.1389 45.8223 73.1801 45.7845 73.2317 45.7845ZM68.8175 48.8725C68.8691 48.8725 68.9103 48.9103 68.9103 48.9576C68.9103 49.0048 68.8691 49.0427 68.8175 49.0427C68.7659 49.0427 68.7212 49.0048 68.7212 48.9576C68.7212 48.9103 68.7625 48.8725 68.8175 48.8725ZM70.5811 50.4984C70.6327 50.4984 70.6739 50.5362 70.6739 50.5835C70.6739 50.6308 70.6327 50.6686 70.5811 50.6686C70.5296 50.6686 70.4883 50.6308 70.4883 50.5835C70.4883 50.5362 70.5296 50.4984 70.5811 50.4984ZM68.1505 51.0121C68.2021 51.0121 68.2434 51.0499 68.2434 51.0971C68.2434 51.1444 68.2021 51.1822 68.1505 51.1822C68.099 51.1822 68.0543 51.1444 68.0543 51.0971C68.0543 51.0499 68.0955 51.0121 68.1505 51.0121ZM69.9692 55.4739C69.9176 55.4739 69.8729 55.4361 69.8729 55.3888C69.8729 55.3416 69.9142 55.3038 69.9692 55.3038C70.0242 55.3038 70.062 55.3416 70.062 55.3888C70.062 55.4361 70.0207 55.4739 69.9692 55.4739ZM66.2528 55.5275C66.2013 55.5275 66.1566 55.4897 66.1566 55.4424C66.1566 55.3951 66.1978 55.3573 66.2528 55.3573C66.3078 55.3573 66.3457 55.3951 66.3457 55.4424C66.3457 55.4897 66.3044 55.5275 66.2528 55.5275Z" fill="#60FF57"/>
<path opacity="0.71" d="M78.6501 51.784H77.6531V57.04H75.5594V58.4737H70.6604C70.6192 58.3729 70.5161 58.2972 70.3923 58.2972C70.2342 58.2972 70.1035 58.417 70.1035 58.5619C70.1035 58.7069 70.2342 58.8266 70.3923 58.8266C70.5161 58.8266 70.6192 58.7541 70.6604 58.6501H75.7519V57.2164H77.8456V51.9605H78.8426V50.3913H84.0647V50.2148H78.6466V51.784H78.6501ZM70.3889 58.6501C70.3373 58.6501 70.2926 58.6123 70.2926 58.5651C70.2926 58.5178 70.3339 58.48 70.3889 58.48C70.4439 58.48 70.4817 58.5178 70.4817 58.5651C70.4817 58.6123 70.4404 58.6501 70.3889 58.6501Z" fill="#60FF57"/>
<path opacity="0.71" d="M63.4885 59.1417H76.628V57.7584C76.628 57.6985 76.683 57.6481 76.7483 57.6481H78.3401C78.5085 57.6481 78.646 57.5221 78.646 57.3677V55.9214H83.2012V54.5223H85.264V52.2851H85.0714V54.3458H83.0087V55.7449H78.646V54.2356H81.0388V51.9637H82.8746V53.265H82.0117V55.0485H80.2481C80.2068 54.9477 80.1037 54.8721 79.9799 54.8721C79.8218 54.8721 79.6912 54.9918 79.6912 55.1368C79.6912 55.2817 79.8184 55.4014 79.9799 55.4014C80.1037 55.4014 80.2103 55.329 80.2481 55.225H82.2042V53.4415H83.0672V51.9637H85.1643V51.7872H80.8428V54.0591H78.4501V57.3708C78.4501 57.4276 78.3985 57.4748 78.3401 57.4748H76.7483C76.5765 57.4748 76.4355 57.604 76.4355 57.7616V58.9653H63.6844V58.6565H67.6208V58.1428C67.7308 58.105 67.8133 58.0105 67.8133 57.8971C67.8133 57.7521 67.6861 57.6324 67.5245 57.6324C67.363 57.6324 67.2358 57.7521 67.2358 57.8971C67.2358 58.0105 67.3148 58.105 67.4283 58.1428V58.48H63.6879V57.8151H61.6836V57.9916H63.4919V59.1449L63.4885 59.1417ZM79.9765 55.2218C79.9249 55.2218 79.8837 55.184 79.8837 55.1368C79.8837 55.0895 79.9249 55.0517 79.9765 55.0517C80.0281 55.0517 80.0728 55.0895 80.0728 55.1368C80.0728 55.184 80.0315 55.2218 79.9765 55.2218ZM67.5177 57.8057C67.5692 57.8057 67.6105 57.8435 67.6105 57.8908C67.6105 57.938 67.5692 57.9758 67.5177 57.9758C67.4661 57.9758 67.4248 57.938 67.4248 57.8908C67.4248 57.8435 67.4661 57.8057 67.5177 57.8057Z" fill="#60FF57"/>
<path opacity="0.71" d="M78.2302 53.3123C78.3539 53.3123 78.4605 53.2398 78.4983 53.1358H80.2723V50.9963H84.2327V50.8198H80.0798V52.9594H78.4983C78.4571 52.8586 78.3539 52.7829 78.2302 52.7829C78.072 52.7829 77.9414 52.9027 77.9414 53.0476C77.9414 53.1926 78.0686 53.3123 78.2302 53.3123ZM78.2302 52.9594C78.2818 52.9594 78.3264 52.9972 78.3264 53.0445C78.3264 53.0917 78.2852 53.1295 78.2302 53.1295C78.1752 53.1295 78.1374 53.0917 78.1374 53.0445C78.1374 52.9972 78.1786 52.9594 78.2302 52.9594Z" fill="#60FF57"/>
<path opacity="0.71" d="M84.3343 55.8457C84.293 55.7449 84.1899 55.6693 84.0661 55.6693C83.908 55.6693 83.7773 55.789 83.7773 55.934C83.7773 56.0789 83.9045 56.1987 84.0661 56.1987C84.1899 56.1987 84.2965 56.1262 84.3343 56.0222H86.0188V53.0445H85.8263V55.8426H84.3377L84.3343 55.8457ZM84.0661 56.0222C84.0146 56.0222 83.9733 55.9844 83.9733 55.9371C83.9733 55.8899 84.0146 55.852 84.0661 55.852C84.1177 55.852 84.1624 55.8899 84.1624 55.9371C84.1624 55.9844 84.1211 56.0222 84.0661 56.0222Z" fill="#60FF57"/>
<path opacity="0.71" d="M78.8147 48.7055C78.7734 48.6047 78.6703 48.529 78.5465 48.529C78.3884 48.529 78.2577 48.6488 78.2577 48.7937C78.2577 48.9387 78.3849 49.0584 78.5465 49.0584C78.6703 49.0584 78.7768 48.9859 78.8147 48.882H83.5349V48.7055H79.9939V46.9945H77.4842V48.7055H76.721C76.6797 48.6047 76.5766 48.529 76.4528 48.529C76.2947 48.529 76.1641 48.6488 76.1641 48.7937C76.1641 48.9387 76.2913 49.0584 76.4528 49.0584C76.5766 49.0584 76.6797 48.9859 76.721 48.882H77.6767V47.1709H79.8013V48.7023H78.8181L78.8147 48.7055ZM76.4528 48.882C76.4013 48.882 76.36 48.8441 76.36 48.7969C76.36 48.7496 76.4013 48.7118 76.4528 48.7118C76.5044 48.7118 76.5457 48.7496 76.5457 48.7969C76.5457 48.8441 76.5044 48.882 76.4528 48.882ZM78.5465 48.882C78.4949 48.882 78.4537 48.8441 78.4537 48.7969C78.4537 48.7496 78.4949 48.7118 78.5465 48.7118C78.5981 48.7118 78.6428 48.7496 78.6428 48.7969C78.6428 48.8441 78.6015 48.882 78.5465 48.882Z" fill="#60FF57"/>
<path opacity="0.71" d="M82.6746 66.1654H85.1155V64.0794H83.8572V64.8104C83.7403 64.8451 83.6544 64.9396 83.6544 65.0594C83.6544 65.2043 83.7816 65.324 83.9431 65.324C84.1047 65.324 84.2319 65.2043 84.2319 65.0594C84.2319 64.9491 84.1597 64.8545 84.0532 64.8167V64.259H84.9229V65.9889H82.678V65.532H80.9075C80.8663 65.4312 80.7631 65.3556 80.6394 65.3556C80.4812 65.3556 80.3506 65.4753 80.3506 65.6202C80.3506 65.7652 80.4812 65.8849 80.6394 65.8849C80.7631 65.8849 80.8663 65.8125 80.9075 65.7085H82.4821V66.4458H77.8444V65.8629H79.7077V64.0857H81.3613C81.4026 64.1865 81.5057 64.2621 81.6295 64.2621C81.7876 64.2621 81.9182 64.1424 81.9182 63.9975C81.9182 63.8525 81.791 63.7328 81.6295 63.7328C81.5057 63.7328 81.3991 63.8052 81.3613 63.9092H79.5117V65.6864H77.8444V65.0499H78.8104V62.6457C78.9204 62.6079 79.0029 62.5133 79.0029 62.3999C79.0029 62.2549 78.8757 62.1352 78.7142 62.1352C78.5526 62.1352 78.4254 62.2549 78.4254 62.3999C78.4254 62.5133 78.5044 62.6079 78.6179 62.6457V64.8734H77.8478V64.5899H75.1216V63.5595H77.7584V61.6342H76.4348V62.507C76.3248 62.5448 76.2423 62.6394 76.2423 62.7528C76.2423 62.8977 76.3695 63.0175 76.5311 63.0175C76.6927 63.0175 76.8199 62.8977 76.8199 62.7528C76.8199 62.6394 76.7408 62.5448 76.6274 62.507V61.8138H77.5625V63.383H75.1181V59.9988H78.0438V58.9022H80.3471V60.4084H81.2375C81.265 60.5282 81.3751 60.6196 81.5126 60.6196C81.6707 60.6196 81.8014 60.4998 81.8014 60.3549C81.8014 60.2099 81.6742 60.0902 81.5126 60.0902C81.4026 60.0902 81.3097 60.1469 81.2616 60.232H80.5397V58.9054H81.5332V57.3204H83.1971V59.4663H85.6862V58.4611C85.7962 58.4233 85.8787 58.3288 85.8787 58.2153C85.8787 58.0704 85.7515 57.9506 85.5899 57.9506C85.4283 57.9506 85.3011 58.0704 85.3011 58.2153C85.3011 58.3288 85.3802 58.4233 85.4936 58.4611V59.2867H83.3931V57.3204H86.7553V53.5896H86.5628V57.144H81.3407V58.7289H77.8478V59.8255H64.502V61.6373H62.3774V60.295C62.4874 60.2572 62.5699 60.1627 62.5699 60.0492C62.5699 59.9043 62.4393 59.7845 62.2811 59.7845C62.123 59.7845 61.9923 59.9043 61.9923 60.0492C61.9923 60.1627 62.0714 60.2572 62.1849 60.295V61.6373H58.967V61.8138H63.78V63.4051H60.5863V64.3504H57.9219V64.5268H60.7788V63.5815H63.9726V61.8138H64.6945V60.503H66.0078V63.9218H61.5729V65.2012H57.6641V65.3776H58.6267V66.2536C58.5167 66.2914 58.4341 66.3859 58.4341 66.4994C58.4341 66.6443 58.5613 66.7641 58.7229 66.7641C58.8845 66.7641 59.0117 66.6443 59.0117 66.4994C59.0117 66.3859 58.9326 66.2914 58.8192 66.2536V65.3776H61.7689V64.0983H66.2037V60.3234H64.6979V59.9988H67.0907V64.5615H62.1849V65.8723H59.5583V68.0024H59.7509V66.0488H62.3774V64.7379H67.0873V65.6864H63.78V67.7881H63.9726V65.866H66.0078V66.7357H67.8333C67.8745 66.8365 67.9777 66.9122 68.1014 66.9122C68.2596 66.9122 68.3902 66.7924 68.3902 66.6475C68.3902 66.5025 68.263 66.3828 68.1014 66.3828C67.9777 66.3828 67.8745 66.4553 67.8333 66.5592H66.2003V65.8692H67.2798V61.2214H68.2218V65.3808H68.7478V67.3186H68.9403V65.2043H68.4143V61.2214H69.7207C69.7619 61.3222 69.8651 61.3979 69.9888 61.3979C70.147 61.3979 70.2776 61.2781 70.2776 61.1332C70.2776 60.9882 70.1504 60.8685 69.9888 60.8685C69.8651 60.8685 69.7585 60.941 69.7207 61.0449H67.2764V60.0051H71.4534V62.1447H69.6657V67.054H69.8582V62.3243H71.4499V65.6707C71.3399 65.7085 71.2574 65.803 71.2574 65.9164C71.2574 66.0614 71.3846 66.1811 71.5462 66.1811C71.7078 66.1811 71.835 66.0614 71.835 65.9164C71.835 65.803 71.7559 65.7085 71.6424 65.6707V64.5048H72.7013V66.638H75.1835C75.2247 66.7389 75.3278 66.8145 75.4516 66.8145C75.6098 66.8145 75.7404 66.6947 75.7404 66.5498C75.7404 66.4048 75.6132 66.2851 75.4516 66.2851C75.3278 66.2851 75.2247 66.3576 75.1835 66.4616H72.8938V64.3283H71.6424V60.0114H73.0245V63.3956H72.6016C72.5604 63.2948 72.4572 63.2192 72.3335 63.2192C72.1753 63.2192 72.0447 63.3389 72.0447 63.4838C72.0447 63.6288 72.1719 63.7485 72.3335 63.7485C72.4572 63.7485 72.5604 63.6761 72.6016 63.5721H73.217V62.2297H73.9321V65.573H76.4142V67.3281H76.6067V65.3965H74.1246V62.0533H73.217V60.0114H74.905V64.7821H77.6312V67.5896H77.8237V66.6412H82.6539V66.1843L82.6746 66.1654ZM83.9431 65.1444C83.8916 65.1444 83.8503 65.1066 83.8503 65.0594C83.8503 65.0121 83.8916 64.9743 83.9431 64.9743C83.9947 64.9743 84.036 65.0121 84.036 65.0594C84.036 65.1066 83.9947 65.1444 83.9431 65.1444ZM80.6359 65.7053C80.5844 65.7053 80.5397 65.6675 80.5397 65.6202C80.5397 65.573 80.5809 65.5352 80.6359 65.5352C80.6909 65.5352 80.7287 65.573 80.7287 65.6202C80.7287 65.6675 80.6875 65.7053 80.6359 65.7053ZM81.6295 63.9061C81.681 63.9061 81.7223 63.9439 81.7223 63.9912C81.7223 64.0384 81.681 64.0762 81.6295 64.0762C81.5779 64.0762 81.5332 64.0384 81.5332 63.9912C81.5332 63.9439 81.5745 63.9061 81.6295 63.9061ZM78.7142 62.3085C78.7657 62.3085 78.807 62.3463 78.807 62.3936C78.807 62.4408 78.7657 62.4787 78.7142 62.4787C78.6626 62.4787 78.6179 62.4408 78.6179 62.3936C78.6179 62.3463 78.6591 62.3085 78.7142 62.3085ZM76.5311 62.8316C76.4795 62.8316 76.4383 62.7938 76.4383 62.7465C76.4383 62.6992 76.4795 62.6614 76.5311 62.6614C76.5827 62.6614 76.6239 62.6992 76.6239 62.7465C76.6239 62.7938 76.5827 62.8316 76.5311 62.8316ZM81.5126 60.2603C81.5641 60.2603 81.6054 60.2981 81.6054 60.3454C81.6054 60.3927 81.5641 60.4305 81.5126 60.4305C81.461 60.4305 81.4198 60.3927 81.4198 60.3454C81.4198 60.2981 81.461 60.2603 81.5126 60.2603ZM85.5933 58.1208C85.6449 58.1208 85.6862 58.1586 85.6862 58.2059C85.6862 58.2531 85.6449 58.2909 85.5933 58.2909C85.5418 58.2909 85.5005 58.2531 85.5005 58.2059C85.5005 58.1586 85.5418 58.1208 85.5933 58.1208ZM62.288 59.9547C62.3396 59.9547 62.3843 59.9925 62.3843 60.0398C62.3843 60.087 62.343 60.1248 62.288 60.1248C62.233 60.1248 62.1952 60.087 62.1952 60.0398C62.1952 59.9925 62.2364 59.9547 62.288 59.9547ZM58.7298 66.5813C58.6782 66.5813 58.637 66.5435 58.637 66.4962C58.637 66.449 58.6782 66.4111 58.7298 66.4111C58.7814 66.4111 58.8261 66.449 58.8261 66.4962C58.8261 66.5435 58.7848 66.5813 58.7298 66.5813ZM68.1083 66.5529C68.1599 66.5529 68.2011 66.5908 68.2011 66.638C68.2011 66.6853 68.1599 66.7231 68.1083 66.7231C68.0567 66.7231 68.0155 66.6853 68.0155 66.638C68.0155 66.5908 68.0567 66.5529 68.1083 66.5529ZM70.0026 61.0386C70.0541 61.0386 70.0954 61.0765 70.0954 61.1237C70.0954 61.171 70.0541 61.2088 70.0026 61.2088C69.951 61.2088 69.9063 61.171 69.9063 61.1237C69.9063 61.0765 69.9476 61.0386 70.0026 61.0386ZM75.4722 66.4458C75.5238 66.4458 75.5651 66.4836 75.5651 66.5309C75.5651 66.5782 75.5238 66.616 75.4722 66.616C75.4207 66.616 75.3794 66.5782 75.3794 66.5309C75.3794 66.4836 75.4207 66.4458 75.4722 66.4458ZM71.5634 65.9858C71.5118 65.9858 71.4706 65.9479 71.4706 65.9007C71.4706 65.8534 71.5118 65.8156 71.5634 65.8156C71.6149 65.8156 71.6596 65.8534 71.6596 65.9007C71.6596 65.9479 71.6184 65.9858 71.5634 65.9858ZM72.3506 63.5532C72.2991 63.5532 72.2578 63.5153 72.2578 63.4681C72.2578 63.4208 72.2991 63.383 72.3506 63.383C72.4022 63.383 72.4435 63.4208 72.4435 63.4681C72.4435 63.5153 72.4022 63.5532 72.3506 63.5532Z" fill="#60FF57"/>
<path opacity="0.71" d="M81.7256 63.0427H79.9964C79.9551 62.9419 79.852 62.8662 79.7282 62.8662C79.5701 62.8662 79.4395 62.986 79.4395 63.1309C79.4395 63.2759 79.5701 63.3956 79.7282 63.3956C79.852 63.3956 79.9551 63.3231 79.9964 63.2192H81.9182V62.2203H81.7256V63.0427ZM79.7282 63.2192C79.6767 63.2192 79.632 63.1813 79.632 63.1341C79.632 63.0868 79.6732 63.049 79.7282 63.049C79.7832 63.049 79.8211 63.0868 79.8211 63.1341C79.8211 63.1813 79.7798 63.2192 79.7282 63.2192Z" fill="#60FF57"/>
<path opacity="0.71" d="M82.6749 62.2203H82.4824V63.5532H86.0372V66.4994H84.1704C84.1292 66.3985 84.026 66.3229 83.9023 66.3229C83.7441 66.3229 83.6135 66.4427 83.6135 66.5876C83.6135 66.7325 83.7407 66.8523 83.9023 66.8523C84.026 66.8523 84.1326 66.7798 84.1704 66.6758H86.2297V63.3735H82.6749V62.2171V62.2203ZM83.9023 66.6758C83.8507 66.6758 83.8094 66.638 83.8094 66.5907C83.8094 66.5435 83.8507 66.5057 83.9023 66.5057C83.9538 66.5057 83.9985 66.5435 83.9985 66.5907C83.9985 66.638 83.9573 66.6758 83.9023 66.6758Z" fill="#60FF57"/>
<path opacity="0.71" d="M87.7327 62.904H84.9342V62.4913H84.7383V63.0836H87.9252V62.715H88.7984V67.1642H88.9909V62.5385H87.7327V62.904Z" fill="#60FF57"/>
<path opacity="0.71" d="M92.6061 64.3661H93.2903V60.8181H94.1119V58.8266H94.5966V57.0116H94.4041V58.6502H93.9194V60.6416H93.0943V64.1897H92.4102V65.7085H93.0943V67.3092H93.2903V65.5289H92.6061V64.3661Z" fill="#60FF57"/>
<path opacity="0.71" d="M97.6339 60.191V61.6846C97.5239 61.7224 97.4414 61.8169 97.4414 61.9304C97.4414 62.0753 97.5686 62.1951 97.7302 62.1951C97.8918 62.1951 98.019 62.0753 98.019 61.9304C98.019 61.8169 97.9399 61.7224 97.8264 61.6846V60.191H97.6339ZM97.7302 62.0186C97.6786 62.0186 97.6374 61.9808 97.6374 61.9335C97.6374 61.8863 97.6786 61.8485 97.7302 61.8485C97.7818 61.8485 97.8264 61.8863 97.8264 61.9335C97.8264 61.9808 97.7852 62.0186 97.7302 62.0186Z" fill="#60FF57"/>
<path opacity="0.71" d="M98.6878 63.4051C98.6465 63.3042 98.5434 63.2286 98.4196 63.2286C98.2615 63.2286 98.1309 63.3483 98.1309 63.4933C98.1309 63.6382 98.2615 63.758 98.4196 63.758C98.5434 63.758 98.6465 63.6855 98.6878 63.5815H103.222C103.264 63.6824 103.367 63.758 103.49 63.758C103.649 63.758 103.779 63.6382 103.779 63.4933C103.779 63.3483 103.652 63.2286 103.49 63.2286C103.367 63.2286 103.264 63.3011 103.222 63.4051H100.964C100.964 62.9135 100.974 61.7004 100.964 61.631L100.771 61.6562C100.778 61.7256 100.775 62.7087 100.771 63.4051H98.6878ZM98.4196 63.5784C98.3681 63.5784 98.3234 63.5406 98.3234 63.4933C98.3234 63.446 98.3646 63.4082 98.4196 63.4082C98.4746 63.4082 98.5125 63.446 98.5125 63.4933C98.5125 63.5406 98.4712 63.5784 98.4196 63.5784ZM103.49 63.4051C103.542 63.4051 103.583 63.4429 103.583 63.4901C103.583 63.5374 103.542 63.5752 103.49 63.5752C103.439 63.5752 103.398 63.5374 103.398 63.4901C103.398 63.4429 103.439 63.4051 103.49 63.4051Z" fill="#60FF57"/>
<path opacity="0.71" d="M104.297 62.4251V65.1129H105.345C105.387 65.2137 105.49 65.2894 105.614 65.2894C105.772 65.2894 105.902 65.1696 105.902 65.0247C105.902 64.8797 105.775 64.76 105.614 64.76C105.49 64.76 105.387 64.8325 105.345 64.9365H104.493V62.4251H104.3H104.297ZM105.61 64.9396C105.662 64.9396 105.703 64.9774 105.703 65.0247C105.703 65.0719 105.662 65.1098 105.61 65.1098C105.559 65.1098 105.517 65.0719 105.517 65.0247C105.517 64.9774 105.559 64.9396 105.61 64.9396Z" fill="#60FF57"/>
<path opacity="0.71" d="M105.594 62.4251V63.3924H107.815C107.856 63.4933 107.959 63.5689 108.083 63.5689C108.241 63.5689 108.372 63.4492 108.372 63.3042C108.372 63.1593 108.244 63.0395 108.083 63.0395C107.959 63.0395 107.856 63.112 107.815 63.216H105.79V62.4282H105.597L105.594 62.4251ZM108.083 63.216C108.134 63.216 108.176 63.2538 108.176 63.3011C108.176 63.3483 108.134 63.3861 108.083 63.3861C108.031 63.3861 107.99 63.3483 107.99 63.3011C107.99 63.2538 108.031 63.216 108.083 63.216Z" fill="#60FF57"/>
<path opacity="0.71" d="M88.3369 65.8124C88.2131 65.8124 88.11 65.8849 88.0688 65.9889H87.639V63.7296L86.5664 63.7422V67.3533H86.7589V63.9187L87.4431 63.9092V66.1654H88.0688C88.11 66.2662 88.2131 66.3418 88.3369 66.3418C88.4951 66.3418 88.6257 66.2221 88.6257 66.0771C88.6257 65.9322 88.4951 65.8124 88.3369 65.8124ZM88.3369 66.1622C88.2853 66.1622 88.2441 66.1244 88.2441 66.0771C88.2441 66.0299 88.2853 65.992 88.3369 65.992C88.3885 65.992 88.4332 66.0299 88.4332 66.0771C88.4332 66.1244 88.3919 66.1622 88.3369 66.1622Z" fill="#60FF57"/>
<path opacity="0.71" d="M92.366 66.033C92.2423 66.033 92.1391 66.1055 92.0979 66.2095H91.1215V63.6288H89.9458V60.8118H89.7533V63.8052H90.1761V65.1539H89.5538V66.0047C89.4438 66.0425 89.3613 66.137 89.3613 66.2504C89.3613 66.3954 89.4885 66.5151 89.6501 66.5151C89.8117 66.5151 89.9389 66.3954 89.9389 66.2504C89.9389 66.137 89.8598 66.0425 89.7464 66.0047V65.3303H90.3686V63.8052H90.929V67.0414H91.1215V66.3859H92.0979C92.1391 66.4868 92.2423 66.5624 92.366 66.5624C92.5242 66.5624 92.6548 66.4427 92.6548 66.2977C92.6548 66.1528 92.5276 66.033 92.366 66.033ZM89.6501 66.3387C89.5985 66.3387 89.5573 66.3009 89.5573 66.2536C89.5573 66.2063 89.5985 66.1685 89.6501 66.1685C89.7017 66.1685 89.7429 66.2063 89.7429 66.2536C89.7429 66.3009 89.7017 66.3387 89.6501 66.3387ZM92.366 66.3828C92.3145 66.3828 92.2732 66.345 92.2732 66.2977C92.2732 66.2504 92.3145 66.2126 92.366 66.2126C92.4176 66.2126 92.4589 66.2504 92.4589 66.2977C92.4589 66.345 92.4176 66.3828 92.366 66.3828Z" fill="#60FF57"/>
<path opacity="0.71" d="M91.3985 63.3074C91.3985 63.4523 91.5292 63.5721 91.6873 63.5721C91.8454 63.5721 91.9761 63.4523 91.9761 63.3074C91.9761 63.1939 91.897 63.0994 91.7836 63.0616V62.006H90.9894V60.6479H90.7969V62.1825H91.591V63.0616C91.481 63.0994 91.3985 63.1939 91.3985 63.3074ZM91.6873 63.3924C91.6357 63.3924 91.591 63.3546 91.591 63.3074C91.591 63.2601 91.6323 63.2223 91.6873 63.2223C91.7423 63.2223 91.7801 63.2601 91.7801 63.3074C91.7801 63.3546 91.7389 63.3924 91.6873 63.3924Z" fill="#60FF57"/>
<path opacity="0.71" d="M100.49 65.1413C100.332 65.1413 100.201 65.261 100.201 65.406C100.201 65.5194 100.28 65.6139 100.393 65.6518V66.3103H96.2715V67.3123H96.464V66.4899H100.586V65.6549C100.696 65.6171 100.779 65.5226 100.779 65.4091C100.779 65.2642 100.651 65.1444 100.49 65.1444V65.1413ZM100.49 65.3177C100.541 65.3177 100.583 65.3556 100.583 65.4028C100.583 65.4501 100.541 65.4879 100.49 65.4879C100.438 65.4879 100.393 65.4501 100.393 65.4028C100.393 65.3556 100.435 65.3177 100.49 65.3177Z" fill="#60FF57"/>
<path opacity="0.71" d="M104.041 65.8912C103.917 65.8912 103.811 65.9637 103.773 66.0677H102.205V64.0164H97.6602V63.0364H99.7642V61.0733H99.5716V62.8599H97.4677V65.7652H95.0027V65.0373H93.2906V64.8104H93.8476V63.5847H96.0031V64.322H94.7689C94.7277 64.2212 94.6245 64.1456 94.5008 64.1456C94.3426 64.1456 94.212 64.2653 94.212 64.4102C94.212 64.5552 94.3392 64.6749 94.5008 64.6749C94.6245 64.6749 94.7277 64.6024 94.7689 64.4985H96.1956V63.4082H95.3534V62.9103C95.4634 62.8725 95.5459 62.778 95.5459 62.6646C95.5459 62.5196 95.4187 62.3999 95.2571 62.3999C95.0955 62.3999 94.9683 62.5196 94.9683 62.6646C94.9683 62.778 95.0474 62.8725 95.1608 62.9103V63.4082H93.8476V62.7685H94.597V61.8768H96.3744V60.4967C96.4844 60.4588 96.5669 60.3643 96.5669 60.2509C96.5669 60.1059 96.4397 59.9862 96.2782 59.9862C96.1166 59.9862 95.9894 60.1059 95.9894 60.2509C95.9894 60.3643 96.0684 60.4588 96.1819 60.4967V61.6972H94.6005V59.9956H95.3568V57.2921H95.1643V59.8192H94.4079V62.5921H93.6585V64.634H93.1016V65.2169H94.8136V67.1674H95.0061V65.9416H97.6671V64.1928H102.016V66.2441H103.78C103.821 66.345 103.924 66.4206 104.048 66.4206C104.206 66.4206 104.337 66.3009 104.337 66.1559C104.337 66.011 104.209 65.8912 104.048 65.8912H104.041ZM94.5008 64.4922C94.4492 64.4922 94.4079 64.4543 94.4079 64.4071C94.4079 64.3598 94.4492 64.322 94.5008 64.322C94.5523 64.322 94.5936 64.3598 94.5936 64.4071C94.5936 64.4543 94.5523 64.4922 94.5008 64.4922ZM95.2571 62.5732C95.3087 62.5732 95.3499 62.611 95.3499 62.6583C95.3499 62.7055 95.3087 62.7433 95.2571 62.7433C95.2055 62.7433 95.1643 62.7055 95.1643 62.6583C95.1643 62.611 95.2055 62.5732 95.2571 62.5732ZM96.2782 60.1626C96.3297 60.1626 96.371 60.2005 96.371 60.2477C96.371 60.295 96.3297 60.3328 96.2782 60.3328C96.2266 60.3328 96.1819 60.295 96.1819 60.2477C96.1819 60.2005 96.2231 60.1626 96.2782 60.1626ZM104.041 66.241C103.989 66.241 103.945 66.2032 103.945 66.1559C103.945 66.1086 103.986 66.0708 104.041 66.0708C104.096 66.0708 104.134 66.1086 104.134 66.1559C104.134 66.2032 104.092 66.241 104.041 66.241Z" fill="#60FF57"/>
<path opacity="0.71" d="M108.084 65.8912C107.96 65.8912 107.857 65.9637 107.816 66.0677H105.117V67.3123H105.31V66.2441H107.816C107.857 66.345 107.96 66.4206 108.084 66.4206C108.242 66.4206 108.373 66.3009 108.373 66.1559C108.373 66.011 108.246 65.8912 108.084 65.8912ZM108.084 66.241C108.033 66.241 107.991 66.2032 107.991 66.1559C107.991 66.1086 108.033 66.0708 108.084 66.0708C108.136 66.0708 108.177 66.1086 108.177 66.1559C108.177 66.2032 108.136 66.241 108.084 66.241Z" fill="#60FF57"/>
<path opacity="0.71" d="M109.336 64.9365C109.178 64.9365 109.047 65.0562 109.047 65.2011C109.047 65.3146 109.126 65.4091 109.239 65.4469V67.3092H109.432V65.4469C109.542 65.4091 109.624 65.3146 109.624 65.2011C109.624 65.0562 109.494 64.9365 109.336 64.9365ZM109.336 65.1161C109.387 65.1161 109.432 65.1539 109.432 65.2011C109.432 65.2484 109.391 65.2862 109.336 65.2862C109.281 65.2862 109.243 65.2484 109.243 65.2011C109.243 65.1539 109.284 65.1161 109.336 65.1161Z" fill="#60FF57"/>
<path opacity="0.71" d="M116.871 49.8651V50.0415H117.651V51.261C117.541 51.2988 117.459 51.3933 117.459 51.5068C117.459 51.6517 117.586 51.7715 117.748 51.7715C117.909 51.7715 118.037 51.6517 118.037 51.5068C118.037 51.3933 117.957 51.2988 117.844 51.261V49.8651H116.871ZM117.748 51.595C117.696 51.595 117.655 51.5572 117.655 51.5099C117.655 51.4627 117.696 51.4248 117.748 51.4248C117.799 51.4248 117.844 51.4627 117.844 51.5099C117.844 51.5572 117.803 51.595 117.748 51.595Z" fill="#60FF57"/>
<path opacity="0.71" d="M113.302 41.8678H111.789V43.0305H111.982V42.0442H113.298V43.2322H114.718V43.9916C114.608 44.0294 114.526 44.1239 114.526 44.2373C114.526 44.3823 114.653 44.502 114.814 44.502C114.976 44.502 115.103 44.3823 115.103 44.2373C115.103 44.1239 115.024 44.0294 114.911 43.9916V43.2322H115.856V44.8613H118.644V44.6848H116.049V43.0557H115.557V42.0726H114.392C114.35 41.9718 114.247 41.8961 114.123 41.8961C113.965 41.8961 113.835 42.0159 113.835 42.1608C113.835 42.3058 113.962 42.4255 114.123 42.4255C114.247 42.4255 114.354 42.353 114.392 42.249H115.364V43.0557H113.487V41.2376H114.701V38.4521H114.508V41.0611H113.295V41.8678H113.302ZM114.821 44.3256C114.77 44.3256 114.728 44.2878 114.728 44.2405C114.728 44.1932 114.77 44.1554 114.821 44.1554C114.873 44.1554 114.918 44.1932 114.918 44.2405C114.918 44.2878 114.876 44.3256 114.821 44.3256ZM114.13 42.249C114.079 42.249 114.037 42.2112 114.037 42.164C114.037 42.1167 114.079 42.0789 114.13 42.0789C114.182 42.0789 114.227 42.1167 114.227 42.164C114.227 42.2112 114.185 42.249 114.13 42.249Z" fill="#60FF57"/>
<path opacity="0.71" d="M112.563 39.9803C112.604 40.0812 112.708 40.1568 112.831 40.1568C112.99 40.1568 113.12 40.037 113.12 39.8921C113.12 39.7471 112.993 39.6274 112.831 39.6274C112.708 39.6274 112.604 39.6999 112.563 39.8039H110.074V41.9592H110.267V40.8153H111.786V41.1525C111.676 41.1903 111.594 41.2848 111.594 41.3983C111.594 41.5432 111.724 41.663 111.883 41.663C112.041 41.663 112.171 41.5432 112.171 41.3983C112.171 41.2848 112.092 41.1903 111.979 41.1525V40.6357H110.267V39.9803H112.56H112.563ZM112.831 39.807C112.883 39.807 112.924 39.8448 112.924 39.8921C112.924 39.9394 112.883 39.9772 112.831 39.9772C112.78 39.9772 112.739 39.9394 112.739 39.8921C112.739 39.8448 112.78 39.807 112.831 39.807ZM111.886 41.4865C111.834 41.4865 111.79 41.4487 111.79 41.4014C111.79 41.3542 111.831 41.3164 111.886 41.3164C111.941 41.3164 111.979 41.3542 111.979 41.4014C111.979 41.4487 111.938 41.4865 111.886 41.4865Z" fill="#60FF57"/>
<path opacity="0.71" d="M111.621 38.3638H106.729V39.2335H104.68V39.41H106.925V38.5403H110.809V39.3091H112.601V38.1653H113.243V40.516H114.069V39.3879C114.179 39.3501 114.261 39.2556 114.261 39.1421C114.261 38.9972 114.13 38.8775 113.972 38.8775C113.814 38.8775 113.683 38.9972 113.683 39.1421C113.683 39.2556 113.763 39.3501 113.876 39.3879V40.3364H113.439V37.9857H112.601V37.6549C112.711 37.617 112.793 37.5225 112.793 37.4091C112.793 37.2641 112.666 37.1444 112.504 37.1444C112.343 37.1444 112.216 37.2641 112.216 37.4091C112.216 37.5225 112.295 37.617 112.408 37.6549V39.1295H111.005V38.5371H111.817V36.2747H114.323V36.0982H111.624V38.3607L111.621 38.3638ZM113.972 39.0602C114.024 39.0602 114.069 39.098 114.069 39.1453C114.069 39.1926 114.027 39.2304 113.972 39.2304C113.917 39.2304 113.879 39.1926 113.879 39.1453C113.879 39.098 113.921 39.0602 113.972 39.0602ZM112.504 37.3271C112.556 37.3271 112.597 37.365 112.597 37.4122C112.597 37.4595 112.556 37.4973 112.504 37.4973C112.453 37.4973 112.411 37.4595 112.411 37.4122C112.411 37.365 112.453 37.3271 112.504 37.3271Z" fill="#60FF57"/>
<path opacity="0.71" d="M108.064 39.2335V41.225H108.257V39.4131H109.216V40.1883C109.106 40.2261 109.023 40.3206 109.023 40.434C109.023 40.579 109.15 40.6987 109.312 40.6987C109.474 40.6987 109.601 40.579 109.601 40.434C109.601 40.3206 109.522 40.2261 109.408 40.1883V39.2367H108.061L108.064 39.2335ZM109.312 40.5191C109.26 40.5191 109.219 40.4813 109.219 40.434C109.219 40.3868 109.26 40.349 109.312 40.349C109.363 40.349 109.405 40.3868 109.405 40.434C109.405 40.4813 109.363 40.5191 109.312 40.5191Z" fill="#60FF57"/>
<path opacity="0.71" d="M105.431 28.6839V29.4968H105.981V30.1239C105.871 30.1617 105.788 30.2562 105.788 30.3697C105.788 30.5146 105.915 30.6343 106.077 30.6343C106.239 30.6343 106.366 30.5146 106.366 30.3697C106.366 30.2562 106.287 30.1617 106.173 30.1239V29.3172H105.623V28.6807H106.617V28.0316H107.132V29.4653C107.022 29.5031 106.94 29.5977 106.94 29.7111C106.94 29.856 107.067 29.9758 107.229 29.9758C107.39 29.9758 107.517 29.856 107.517 29.7111C107.517 29.5977 107.438 29.5031 107.325 29.4653V27.852H106.421V28.5011H104.698V27.3321H104.135V26.5002H102.141V26.6766H103.939V27.5085H104.502V28.6776H105.427L105.431 28.6839ZM106.077 30.4579C106.025 30.4579 105.984 30.4201 105.984 30.3728C105.984 30.3255 106.025 30.2877 106.077 30.2877C106.129 30.2877 106.173 30.3255 106.173 30.3728C106.173 30.4201 106.132 30.4579 106.077 30.4579ZM107.229 29.8025C107.177 29.8025 107.136 29.7647 107.136 29.7174C107.136 29.6701 107.177 29.6323 107.229 29.6323C107.28 29.6323 107.321 29.6701 107.321 29.7174C107.321 29.7647 107.28 29.8025 107.229 29.8025Z" fill="#60FF57"/>
<path opacity="0.71" d="M109.106 33.9114H107.837V33.2623H105.967V33.4388H107.644V34.0879H108.463V35.2727H107.129V34.6078C107.239 34.57 107.321 34.4755 107.321 34.362C107.321 34.2171 107.194 34.0973 107.033 34.0973C106.871 34.0973 106.744 34.2171 106.744 34.362C106.744 34.4755 106.823 34.57 106.936 34.6078V35.4523H107.6V37.2862H108.483C108.525 37.387 108.628 37.4626 108.751 37.4626C108.91 37.4626 109.04 37.3429 109.04 37.198C109.04 37.053 108.913 36.9333 108.751 36.9333C108.628 36.9333 108.521 37.0057 108.483 37.1097H107.796V35.4554H108.659V34.0942H109.302V33.3821H109.814V35.6287C109.704 35.6666 109.621 35.7611 109.621 35.8745C109.621 36.0195 109.748 36.1392 109.91 36.1392C110.072 36.1392 110.199 36.0195 110.199 35.8745C110.199 35.7611 110.12 35.6666 110.006 35.6287V33.2024H109.302V32.317H111.378V32.1405H109.109V33.9177L109.106 33.9114ZM107.029 34.2738C107.081 34.2738 107.122 34.3116 107.122 34.3589C107.122 34.4061 107.081 34.444 107.029 34.444C106.978 34.444 106.933 34.4061 106.933 34.3589C106.933 34.3116 106.974 34.2738 107.029 34.2738ZM108.748 37.1097C108.8 37.1097 108.841 37.1475 108.841 37.1948C108.841 37.2421 108.8 37.2799 108.748 37.2799C108.696 37.2799 108.652 37.2421 108.652 37.1948C108.652 37.1475 108.693 37.1097 108.748 37.1097ZM109.91 35.9564C109.858 35.9564 109.817 35.9186 109.817 35.8714C109.817 35.8241 109.858 35.7863 109.91 35.7863C109.962 35.7863 110.006 35.8241 110.006 35.8714C110.006 35.9186 109.965 35.9564 109.91 35.9564Z" fill="#60FF57"/>
<path opacity="0.71" d="M110.679 37.0215H109.404V37.9132H107.324V36.0982H105.742V36.2779H107.131V38.0929H109.599V37.198H110.871V35.3073H111.693V33.5333H111.497V35.1309H110.679V37.0215Z" fill="#60FF57"/>
<path opacity="0.71" d="M108.29 31.1637V32.3075H105.742V32.484H108.482V31.3402H108.843C108.884 31.441 108.988 31.5166 109.111 31.5166C109.269 31.5166 109.4 31.3969 109.4 31.2519C109.4 31.107 109.273 30.9872 109.111 30.9872C108.988 30.9872 108.881 31.0597 108.843 31.1637H108.286H108.29ZM109.115 31.1669C109.166 31.1669 109.208 31.2047 109.208 31.2519C109.208 31.2992 109.166 31.337 109.115 31.337C109.063 31.337 109.018 31.2992 109.018 31.2519C109.018 31.2047 109.06 31.1669 109.115 31.1669Z" fill="#60FF57"/>
<path opacity="0.71" d="M106.609 31.6711C106.499 31.7089 106.416 31.8034 106.416 31.9168C106.416 32.0618 106.543 32.1815 106.705 32.1815C106.866 32.1815 106.994 32.0618 106.994 31.9168C106.994 31.8034 106.915 31.7089 106.801 31.6711V30.6407H108.651V28.9202H108.458V30.4611H106.609V31.6711ZM106.708 32.0051C106.657 32.0051 106.615 31.9673 106.615 31.92C106.615 31.8727 106.657 31.8349 106.708 31.8349C106.76 31.8349 106.804 31.8727 106.804 31.92C106.804 31.9673 106.763 32.0051 106.708 32.0051Z" fill="#60FF57"/>
<path opacity="0.71" d="M117.039 44.2342C117.197 44.2342 117.328 44.1145 117.328 43.9695C117.328 43.8561 117.248 43.7616 117.135 43.7237V42.5925H116.943V43.7237C116.833 43.7616 116.75 43.8561 116.75 43.9695C116.75 44.1145 116.881 44.2342 117.039 44.2342ZM117.039 44.0546C116.987 44.0546 116.943 44.0168 116.943 43.9695C116.943 43.9223 116.984 43.8844 117.039 43.8844C117.094 43.8844 117.132 43.9223 117.132 43.9695C117.132 44.0168 117.09 44.0546 117.039 44.0546Z" fill="#60FF57"/>
<path opacity="0.71" d="M118.766 47.5617L118.745 48.4629H117.381V46.9598H118.244V45.775H114.953V45.9515H118.048V46.7802H117.185V48.6393H120.028V50.823H118.962V50.051C119.072 50.0132 119.155 49.9186 119.155 49.8052C119.155 49.6603 119.027 49.5405 118.866 49.5405C118.704 49.5405 118.577 49.6603 118.577 49.8052C118.577 49.9186 118.656 50.0132 118.77 50.051V52.4017H119.461V54.0465H118.718C118.677 53.9457 118.574 53.87 118.45 53.87C118.292 53.87 118.161 53.9898 118.161 54.1347C118.161 54.2797 118.288 54.3994 118.45 54.3994C118.574 54.3994 118.677 54.3269 118.718 54.223H119.657V52.3985H120.365V55.3888H114.541V50.2085H112.691V48.0879H113.651V48.7811C113.541 48.8189 113.458 48.9135 113.458 49.0269C113.458 49.1719 113.585 49.2916 113.747 49.2916C113.908 49.2916 114.036 49.1719 114.036 49.0269C114.036 48.9135 113.957 48.8189 113.843 48.7811V47.9083H112.495V50.2054H111.629V48.4534H108.501V47.0733H110.608C110.649 47.1741 110.752 47.2497 110.876 47.2497C111.034 47.2497 111.165 47.13 111.165 46.985C111.165 46.8401 111.034 46.7204 110.876 46.7204C110.752 46.7204 110.649 46.7928 110.608 46.8968H108.308V48.4534H106.383V48.6299H111.437V49.4113H110.123V51.6234C110.013 51.6612 109.938 51.7557 109.938 51.8691C109.938 52.0141 110.065 52.1338 110.226 52.1338C110.388 52.1338 110.515 52.0141 110.515 51.8691C110.515 51.7526 110.433 51.658 110.319 51.6234V49.5909H111.44V54.4782L112.461 55.414L111.612 56.1924H109.288V53.0287H110.78V54.9918C110.67 55.0296 110.587 55.1242 110.587 55.2376C110.587 55.3825 110.715 55.5023 110.876 55.5023C111.038 55.5023 111.165 55.3825 111.165 55.2376C111.165 55.1242 111.086 55.0296 110.972 54.9918V52.8491H109.284V48.9355H105.695V49.112H109.088V56.3657H111.688L112.592 55.5369L113.111 56.0127L113.138 56.0379H118.271L119.753 57.396L119.78 57.4213H127.354V57.2448H119.859L118.378 55.8867L118.35 55.8615H113.217L111.626 54.3994V52.2977H113.045V53.2808C112.935 53.3186 112.853 53.4131 112.853 53.5266C112.853 53.6715 112.98 53.7913 113.142 53.7913C113.303 53.7913 113.431 53.6715 113.431 53.5266C113.431 53.4131 113.351 53.3186 113.238 53.2808V52.1212H111.626V50.3787H114.342V55.559H120.554V53.9898H122.52V55.162H123.452V56.3846H121.671C121.64 56.2711 121.53 56.1829 121.396 56.1829C121.238 56.1829 121.107 56.3026 121.107 56.4476C121.107 56.5925 121.234 56.7123 121.396 56.7123C121.51 56.7123 121.606 56.6493 121.654 56.561H123.648V55.1588H124.947V54.9824H122.716V53.8102H120.554V52.2094H118.959V50.9837H120.22V47.067H120.028V48.444H118.938L118.959 47.5428C119.072 47.505 119.151 47.4104 119.151 47.297C119.151 47.152 119.024 47.0323 118.862 47.0323C118.701 47.0323 118.574 47.152 118.574 47.297C118.574 47.4104 118.653 47.505 118.763 47.5428L118.766 47.5617ZM118.45 54.2261C118.398 54.2261 118.357 54.1883 118.357 54.141C118.357 54.0938 118.398 54.056 118.45 54.056C118.501 54.056 118.543 54.0938 118.543 54.141C118.543 54.1883 118.501 54.2261 118.45 54.2261ZM113.75 49.1214C113.699 49.1214 113.657 49.0836 113.657 49.0364C113.657 48.9891 113.699 48.9513 113.75 48.9513C113.802 48.9513 113.843 48.9891 113.843 49.0364C113.843 49.0836 113.802 49.1214 113.75 49.1214ZM110.876 46.9063C110.928 46.9063 110.972 46.9441 110.972 46.9913C110.972 47.0386 110.931 47.0764 110.876 47.0764C110.821 47.0764 110.783 47.0386 110.783 46.9913C110.783 46.9441 110.825 46.9063 110.876 46.9063ZM110.223 51.9668C110.171 51.9668 110.13 51.929 110.13 51.8817C110.13 51.8345 110.171 51.7967 110.223 51.7967C110.275 51.7967 110.316 51.8345 110.316 51.8817C110.316 51.929 110.275 51.9668 110.223 51.9668ZM110.876 55.3353C110.825 55.3353 110.783 55.2975 110.783 55.2502C110.783 55.2029 110.825 55.1651 110.876 55.1651C110.928 55.1651 110.972 55.2029 110.972 55.2502C110.972 55.2975 110.931 55.3353 110.876 55.3353ZM113.145 53.6274C113.094 53.6274 113.052 53.5896 113.052 53.5423C113.052 53.4951 113.094 53.4573 113.145 53.4573C113.197 53.4573 113.241 53.4951 113.241 53.5423C113.241 53.5896 113.2 53.6274 113.145 53.6274ZM121.4 56.5516C121.348 56.5516 121.307 56.5138 121.307 56.4665C121.307 56.4192 121.348 56.3814 121.4 56.3814C121.451 56.3814 121.492 56.4192 121.492 56.4665C121.492 56.5138 121.451 56.5516 121.4 56.5516ZM118.866 49.7201C118.917 49.7201 118.959 49.7579 118.959 49.8052C118.959 49.8525 118.917 49.8903 118.866 49.8903C118.814 49.8903 118.77 49.8525 118.77 49.8052C118.77 49.7579 118.811 49.7201 118.866 49.7201ZM118.866 47.2308C118.917 47.2308 118.959 47.2686 118.959 47.3159C118.959 47.3632 118.917 47.401 118.866 47.401C118.814 47.401 118.77 47.3632 118.77 47.3159C118.77 47.2686 118.811 47.2308 118.866 47.2308Z" fill="#60FF57"/>
<path opacity="0.71" d="M73.9529 43.4149H73.0384C72.9971 43.3109 72.894 43.2384 72.7702 43.2384C72.6121 43.2384 72.4815 43.3582 72.4815 43.5031C72.4815 43.6481 72.6121 43.7678 72.7702 43.7678C72.894 43.7678 72.9971 43.6953 73.0384 43.5945H73.7603V44.4673H72.1652V41.9969H71.9727V44.647H73.9563V43.4181L73.9529 43.4149ZM72.7702 43.5882C72.7187 43.5882 72.674 43.5504 72.674 43.5031C72.674 43.4559 72.7152 43.4181 72.7702 43.4181C72.8252 43.4181 72.8631 43.4559 72.8631 43.5031C72.8631 43.5504 72.8218 43.5882 72.7702 43.5882Z" fill="#60FF57"/>
<path opacity="0.71" d="M72.7707 45.4442H74.3693V45.2677H72.9632V44.918H71.3268V43.8182H71.1309V45.0944H72.7707V45.4442Z" fill="#60FF57"/>
<path opacity="0.71" d="M73.4366 43.0179H76.0013V41.9213H77.4864V40.3364H78.5797V41.0075H83.2002V40.8311H78.7756V40.1599H77.2974V41.7449H75.8122V42.8414H74.7533V41.0989H76.2763C76.3176 41.1997 76.4207 41.2754 76.5445 41.2754C76.7026 41.2754 76.8332 41.1556 76.8332 41.0107C76.8332 40.8657 76.706 40.746 76.5445 40.746C76.4207 40.746 76.3141 40.8185 76.2763 40.9225H74.5574V42.8414H73.6326V41.4991H72.0684V41.6755H73.4401V43.0179H73.4366ZM76.541 40.9225C76.5926 40.9225 76.6339 40.9603 76.6339 41.0075C76.6339 41.0548 76.5926 41.0926 76.541 41.0926C76.4895 41.0926 76.4448 41.0548 76.4448 41.0075C76.4448 40.9603 76.486 40.9225 76.541 40.9225Z" fill="#60FF57"/>
<path opacity="0.71" d="M75.8266 38.5403H76.607V39.8322H79.0892V40.4089H81.4544V40.1221H82.2107C82.2486 40.2261 82.3517 40.3049 82.4789 40.3049C82.637 40.3049 82.7677 40.1851 82.7677 40.0402C82.7677 39.8952 82.6405 39.7755 82.4789 39.7755C82.3551 39.7755 82.2554 39.8448 82.2107 39.9456H81.451V39.6967H83.2902V37.2515H83.0977V37.4059H81.0591V38.7861H80.1068V39.6841C79.9968 39.7219 79.9142 39.8165 79.9142 39.9299C79.9142 40.0748 80.0414 40.1946 80.203 40.1946C80.3646 40.1946 80.4918 40.0748 80.4918 39.9299C80.4918 39.8165 80.4127 39.7219 80.2993 39.6841V38.9657H81.2516V37.5855H83.0977V39.5203H81.2585V40.2324H79.2817V39.6558H76.7995V38.3638H75.6307V40.2324H73.1348V40.4089H75.8266V38.5403ZM82.4823 39.9551C82.5339 39.9551 82.5752 39.9929 82.5752 40.0402C82.5752 40.0874 82.5339 40.1253 82.4823 40.1253C82.4308 40.1253 82.3895 40.0874 82.3895 40.0402C82.3895 39.9929 82.4308 39.9551 82.4823 39.9551ZM80.2065 40.0181C80.1549 40.0181 80.1136 39.9803 80.1136 39.933C80.1136 39.8858 80.1549 39.848 80.2065 39.848C80.258 39.848 80.3027 39.8858 80.3027 39.933C80.3027 39.9803 80.2615 40.0181 80.2065 40.0181Z" fill="#60FF57"/>
<path opacity="0.71" d="M81.5503 29.4496H83.5443V26.8752H85.6929V25.6746H87.2572V23.5319H87.0612V25.495H85.5004V26.6987H83.3518V29.2731H81.3543V30.2657H77.2461V30.4421H81.5503V29.4496Z" fill="#60FF57"/>
<path opacity="0.71" d="M83.6477 36.6969V36.5205H81.7912V33.8074H79.8385V32.2949H83.6477V32.1153H79.6426V33.9839H81.5953V36.6969H83.6477Z" fill="#60FF57"/>
<path opacity="0.71" d="M77.3145 33.3505V36.6371H80.7179V34.5385H78.9062V33.297C79.0162 33.2592 79.0918 33.1646 79.0918 33.0512C79.0918 32.9062 78.9646 32.7865 78.8031 32.7865C78.6415 32.7865 78.5143 32.9062 78.5143 33.0512C78.5143 33.1678 78.5968 33.2623 78.7102 33.297V34.7149H80.522V36.4575H77.507V33.3505H77.3145ZM78.8065 32.963C78.8581 32.963 78.8993 33.0008 78.8993 33.048C78.8993 33.0953 78.8581 33.1331 78.8065 33.1331C78.7549 33.1331 78.7102 33.0953 78.7102 33.048C78.7102 33.0008 78.7515 32.963 78.8065 32.963Z" fill="#60FF57"/>
<path opacity="0.71" d="M78.9414 31.1574V31.3339H82.3793V30.0829C82.4893 30.0451 82.5718 29.9506 82.5718 29.8371C82.5718 29.6922 82.4412 29.5724 82.283 29.5724C82.1249 29.5724 81.9942 29.6922 81.9942 29.8371C81.9942 29.9506 82.0733 30.0451 82.1868 30.0829V31.1574H78.9414ZM82.283 29.7489C82.3346 29.7489 82.3793 29.7867 82.3793 29.834C82.3793 29.8812 82.338 29.9191 82.283 29.9191C82.228 29.9191 82.1902 29.8812 82.1902 29.834C82.1902 29.7867 82.2314 29.7489 82.283 29.7489Z" fill="#60FF57"/>
<path opacity="0.71" d="M78.9208 39.1138H77.7313V38.5403C77.8413 38.5025 77.9238 38.4079 77.9238 38.2945C77.9238 38.1496 77.7966 38.0298 77.6351 38.0298C77.4735 38.0298 77.3463 38.1496 77.3463 38.2945C77.3463 38.4079 77.4253 38.5025 77.5388 38.5403V39.2934H79.1168V38.6222H80.5401V37.0215H77.7726C77.7313 36.9207 77.6282 36.845 77.5044 36.845C77.3463 36.845 77.2156 36.9648 77.2156 37.1097C77.2156 37.2547 77.3428 37.3744 77.5044 37.3744C77.6282 37.3744 77.7313 37.3019 77.7726 37.198H80.3441V38.4426H79.1168V37.5383H75.8371V36.7442H75.6445V37.7179H78.9243V39.1169L78.9208 39.1138ZM77.6316 38.2063C77.6832 38.2063 77.7244 38.2441 77.7244 38.2914C77.7244 38.3386 77.6832 38.3764 77.6316 38.3764C77.5801 38.3764 77.5388 38.3386 77.5388 38.2914C77.5388 38.2441 77.5801 38.2063 77.6316 38.2063ZM77.501 37.1948C77.4494 37.1948 77.4082 37.157 77.4082 37.1097C77.4082 37.0625 77.4494 37.0246 77.501 37.0246C77.5525 37.0246 77.5938 37.0625 77.5938 37.1097C77.5938 37.157 77.5525 37.1948 77.501 37.1948Z" fill="#60FF57"/>
<path opacity="0.71" d="M70.7693 47.3506C70.9275 47.3506 71.0581 47.2308 71.0581 47.0859C71.0581 46.9409 70.9275 46.8212 70.7693 46.8212C70.6456 46.8212 70.5424 46.8937 70.5012 46.9976H68.9473V47.1741H70.5012C70.5424 47.2749 70.6456 47.3506 70.7693 47.3506ZM70.7693 46.9976C70.8209 46.9976 70.8656 47.0355 70.8656 47.0827C70.8656 47.13 70.8243 47.1678 70.7693 47.1678C70.7143 47.1678 70.6765 47.13 70.6765 47.0827C70.6765 47.0355 70.7178 46.9976 70.7693 46.9976Z" fill="#60FF57"/>
<path opacity="0.71" d="M74.7307 39.9866C74.8888 39.9866 75.0194 39.8669 75.0194 39.7219C75.0194 39.599 74.9266 39.5014 74.8063 39.473V38.1055H74.6138V39.4856C74.5141 39.5266 74.4453 39.618 74.4453 39.7251C74.4453 39.87 74.5725 39.9898 74.7341 39.9898L74.7307 39.9866ZM74.7307 39.8102C74.6791 39.8102 74.6378 39.7724 74.6378 39.7251C74.6378 39.6778 74.6791 39.64 74.7307 39.64C74.7822 39.64 74.8235 39.6778 74.8235 39.7251C74.8235 39.7724 74.7822 39.8102 74.7307 39.8102Z" fill="#60FF57"/>
<path opacity="0.71" d="M82.2835 28.7563C82.4416 28.7563 82.5722 28.6366 82.5722 28.4917C82.5722 28.3782 82.4932 28.2837 82.3797 28.2459V25.911H84.8687V23.5256H85.9654V24.0802C85.8554 24.118 85.7729 24.2126 85.7729 24.326C85.7729 24.4709 85.9035 24.5907 86.0617 24.5907C86.2198 24.5907 86.3505 24.4709 86.3505 24.326C86.3505 24.2126 86.2714 24.118 86.158 24.0802V23.5256H88.4613V21.5846H90.1562V27.351H88.7535V28.6145H87.1137V29.9285C87.0037 29.9663 86.9212 30.0609 86.9212 30.1743C86.9212 30.3193 87.0484 30.439 87.2099 30.439C87.3715 30.439 87.4987 30.3193 87.4987 30.1743C87.4987 30.0609 87.4196 29.9663 87.3062 29.9285V28.7942H88.7535V32.2256H86.1511V34.4755H87.7978C87.8322 34.5857 87.9388 34.6708 88.0728 34.6708C88.231 34.6708 88.3616 34.5511 88.3616 34.4061C88.3616 34.2612 88.2344 34.1415 88.0728 34.1415C87.956 34.1415 87.8563 34.2045 87.8116 34.2959H86.347V32.4021H88.7535V33.3821H90.1562V35.9092H90.3487V33.2056H88.9461V27.5306H90.3487V21.4113H89.0458V19.8263H90.5034C90.5447 19.9272 90.6478 20.0028 90.7716 20.0028C90.9297 20.0028 91.0604 19.883 91.0604 19.7381C91.0604 19.5931 90.9332 19.4734 90.7716 19.4734C90.6478 19.4734 90.5447 19.5459 90.5034 19.6499H88.8532V21.4113H87.7841V19.924H85.5907V20.1005H87.5881V21.4113H84.1262V21.5877H88.2619V23.3492H84.6659V25.7345H82.1769V28.249C82.0669 28.2868 81.9844 28.3814 81.9844 28.4948C81.9844 28.6398 82.1116 28.7595 82.2732 28.7595L82.2835 28.7563ZM87.2134 30.2594C87.1618 30.2594 87.1206 30.2216 87.1206 30.1743C87.1206 30.127 87.1618 30.0892 87.2134 30.0892C87.2649 30.0892 87.3062 30.127 87.3062 30.1743C87.3062 30.2216 87.2649 30.2594 87.2134 30.2594ZM88.0763 34.3211C88.1279 34.3211 88.1691 34.3589 88.1691 34.4061C88.1691 34.4534 88.1279 34.4912 88.0763 34.4912C88.0247 34.4912 87.98 34.4534 87.98 34.4061C87.98 34.3589 88.0213 34.3211 88.0763 34.3211ZM90.7784 19.6499C90.83 19.6499 90.8713 19.6877 90.8713 19.7349C90.8713 19.7822 90.83 19.82 90.7784 19.82C90.7269 19.82 90.6856 19.7822 90.6856 19.7349C90.6856 19.6877 90.7269 19.6499 90.7784 19.6499ZM86.0617 24.4142C86.0101 24.4142 85.9654 24.3764 85.9654 24.3291C85.9654 24.2819 86.0067 24.2441 86.0617 24.2441C86.1167 24.2441 86.1545 24.2819 86.1545 24.3291C86.1545 24.3764 86.1133 24.4142 86.0617 24.4142ZM82.2835 28.5799C82.2319 28.5799 82.1906 28.5421 82.1906 28.4948C82.1906 28.4475 82.2319 28.4097 82.2835 28.4097C82.335 28.4097 82.3797 28.4475 82.3797 28.4948C82.3797 28.5421 82.3385 28.5799 82.2835 28.5799Z" fill="#60FF57"/>
<path opacity="0.71" d="M78.9515 46.0807C78.9102 45.9799 78.8071 45.9042 78.6833 45.9042C78.5252 45.9042 78.3945 46.024 78.3945 46.1689C78.3945 46.3139 78.5217 46.4336 78.6833 46.4336C78.8071 46.4336 78.9102 46.3611 78.9515 46.2572H80.6085V48.5322H83.156V48.3557H80.8045V46.0807H78.9549H78.9515ZM78.6833 46.2572C78.6317 46.2572 78.5905 46.2193 78.5905 46.1721C78.5905 46.1248 78.6317 46.087 78.6833 46.087C78.7349 46.087 78.7761 46.1248 78.7761 46.1721C78.7761 46.2193 78.7349 46.2572 78.6833 46.2572Z" fill="#60FF57"/>
</g>
<defs>
<linearGradient id="paint0_linear_20_146" x1="6.18129" y1="96.9635" x2="6.18129" y2="84.6745" gradientUnits="userSpaceOnUse">
<stop/>
<stop offset="0.05" stop-color="#0B1F0A"/>
<stop offset="0.16" stop-color="#1F531C"/>
<stop offset="0.26" stop-color="#30812C"/>
<stop offset="0.37" stop-color="#3FA739"/>
<stop offset="0.48" stop-color="#4BC744"/>
<stop offset="0.59" stop-color="#54E04C"/>
<stop offset="0.72" stop-color="#5AF152"/>
<stop offset="0.84" stop-color="#5EFB55"/>
<stop offset="1" stop-color="#60FF57"/>
</linearGradient>
<linearGradient id="paint1_linear_20_146" x1="20.8913" y1="-2.26076e-05" x2="20.8913" y2="-2.26076e-05" gradientUnits="userSpaceOnUse">
<stop/>
<stop offset="0.05" stop-color="#0B1F0A"/>
<stop offset="0.16" stop-color="#1F531C"/>
<stop offset="0.26" stop-color="#30812C"/>
<stop offset="0.37" stop-color="#3FA739"/>
<stop offset="0.48" stop-color="#4BC744"/>
<stop offset="0.59" stop-color="#54E04C"/>
<stop offset="0.72" stop-color="#5AF152"/>
<stop offset="0.84" stop-color="#5EFB55"/>
<stop offset="1" stop-color="#60FF57"/>
</linearGradient>
<linearGradient id="paint2_linear_20_146" x1="36.3112" y1="2.83352e-05" x2="36.3112" y2="2.83352e-05" gradientUnits="userSpaceOnUse">
<stop/>
<stop offset="0.05" stop-color="#0B1F0A"/>
<stop offset="0.16" stop-color="#1F531C"/>
<stop offset="0.26" stop-color="#30812C"/>
<stop offset="0.37" stop-color="#3FA739"/>
<stop offset="0.48" stop-color="#4BC744"/>
<stop offset="0.59" stop-color="#54E04C"/>
<stop offset="0.72" stop-color="#5AF152"/>
<stop offset="0.84" stop-color="#5EFB55"/>
<stop offset="1" stop-color="#60FF57"/>
</linearGradient>
<linearGradient id="paint3_linear_20_146" x1="51.6706" y1="2.55056e-06" x2="51.6706" y2="2.55056e-06" gradientUnits="userSpaceOnUse">
<stop/>
<stop offset="0.05" stop-color="#0B1F0A"/>
<stop offset="0.16" stop-color="#1F531C"/>
<stop offset="0.26" stop-color="#30812C"/>
<stop offset="0.37" stop-color="#3FA739"/>
<stop offset="0.48" stop-color="#4BC744"/>
<stop offset="0.59" stop-color="#54E04C"/>
<stop offset="0.72" stop-color="#5AF152"/>
<stop offset="0.84" stop-color="#5EFB55"/>
<stop offset="1" stop-color="#60FF57"/>
</linearGradient>
<linearGradient id="paint4_linear_20_146" x1="67.2034" y1="9.13093e-06" x2="67.2034" y2="84.6902" gradientUnits="userSpaceOnUse">
<stop/>
<stop offset="0.05" stop-color="#0B1F0A"/>
<stop offset="0.16" stop-color="#1F531C"/>
<stop offset="0.26" stop-color="#30812C"/>
<stop offset="0.37" stop-color="#3FA739"/>
<stop offset="0.48" stop-color="#4BC744"/>
<stop offset="0.59" stop-color="#54E04C"/>
<stop offset="0.72" stop-color="#5AF152"/>
<stop offset="0.84" stop-color="#5EFB55"/>
<stop offset="1" stop-color="#60FF57"/>
</linearGradient>
<linearGradient id="paint5_linear_20_146" x1="81.4469" y1="2.55056e-06" x2="81.4469" y2="2.55056e-06" gradientUnits="userSpaceOnUse">
<stop/>
<stop offset="0.05" stop-color="#0B1F0A"/>
<stop offset="0.16" stop-color="#1F531C"/>
<stop offset="0.26" stop-color="#30812C"/>
<stop offset="0.37" stop-color="#3FA739"/>
<stop offset="0.48" stop-color="#4BC744"/>
<stop offset="0.59" stop-color="#54E04C"/>
<stop offset="0.72" stop-color="#5AF152"/>
<stop offset="0.84" stop-color="#5EFB55"/>
<stop offset="1" stop-color="#60FF57"/>
</linearGradient>
<linearGradient id="paint6_linear_20_146" x1="101.389" y1="3.42672e-05" x2="101.389" y2="3.42672e-05" gradientUnits="userSpaceOnUse">
<stop/>
<stop offset="0.05" stop-color="#0B1F0A"/>
<stop offset="0.16" stop-color="#1F531C"/>
<stop offset="0.26" stop-color="#30812C"/>
<stop offset="0.37" stop-color="#3FA739"/>
<stop offset="0.48" stop-color="#4BC744"/>
<stop offset="0.59" stop-color="#54E04C"/>
<stop offset="0.72" stop-color="#5AF152"/>
<stop offset="0.84" stop-color="#5EFB55"/>
<stop offset="1" stop-color="#60FF57"/>
</linearGradient>
<linearGradient id="paint7_linear_20_146" x1="116.351" y1="2.55056e-06" x2="116.351" y2="2.55056e-06" gradientUnits="userSpaceOnUse">
<stop/>
<stop offset="0.05" stop-color="#0B1F0A"/>
<stop offset="0.16" stop-color="#1F531C"/>
<stop offset="0.26" stop-color="#30812C"/>
<stop offset="0.37" stop-color="#3FA739"/>
<stop offset="0.48" stop-color="#4BC744"/>
<stop offset="0.59" stop-color="#54E04C"/>
<stop offset="0.72" stop-color="#5AF152"/>
<stop offset="0.84" stop-color="#5EFB55"/>
<stop offset="1" stop-color="#60FF57"/>
</linearGradient>
<linearGradient id="paint8_linear_20_146" x1="131.556" y1="2.55056e-06" x2="131.556" y2="2.55056e-06" gradientUnits="userSpaceOnUse">
<stop/>
<stop offset="0.05" stop-color="#0B1F0A"/>
<stop offset="0.16" stop-color="#1F531C"/>
<stop offset="0.26" stop-color="#30812C"/>
<stop offset="0.37" stop-color="#3FA739"/>
<stop offset="0.48" stop-color="#4BC744"/>
<stop offset="0.59" stop-color="#54E04C"/>
<stop offset="0.72" stop-color="#5AF152"/>
<stop offset="0.84" stop-color="#5EFB55"/>
<stop offset="1" stop-color="#60FF57"/>
</linearGradient>
<linearGradient id="paint9_linear_20_146" x1="152.188" y1="3.83833e-05" x2="152.188" y2="84.6556" gradientUnits="userSpaceOnUse">
<stop/>
<stop offset="0.05" stop-color="#0B1F0A"/>
<stop offset="0.16" stop-color="#1F531C"/>
<stop offset="0.26" stop-color="#30812C"/>
<stop offset="0.37" stop-color="#3FA739"/>
<stop offset="0.48" stop-color="#4BC744"/>
<stop offset="0.59" stop-color="#54E04C"/>
<stop offset="0.72" stop-color="#5AF152"/>
<stop offset="0.84" stop-color="#5EFB55"/>
<stop offset="1" stop-color="#60FF57"/>
</linearGradient>
<linearGradient id="paint10_linear_20_146" x1="166.711" y1="2.55056e-06" x2="166.711" y2="2.55056e-06" gradientUnits="userSpaceOnUse">
<stop/>
<stop offset="0.05" stop-color="#0B1F0A"/>
<stop offset="0.16" stop-color="#1F531C"/>
<stop offset="0.26" stop-color="#30812C"/>
<stop offset="0.37" stop-color="#3FA739"/>
<stop offset="0.48" stop-color="#4BC744"/>
<stop offset="0.59" stop-color="#54E04C"/>
<stop offset="0.72" stop-color="#5AF152"/>
<stop offset="0.84" stop-color="#5EFB55"/>
<stop offset="1" stop-color="#60FF57"/>
</linearGradient>
<linearGradient id="paint11_linear_20_146" x1="182.3" y1="-3.41371e-06" x2="182.3" y2="-3.41371e-06" gradientUnits="userSpaceOnUse">
<stop/>
<stop offset="0.05" stop-color="#0B1F0A"/>
<stop offset="0.16" stop-color="#1F531C"/>
<stop offset="0.26" stop-color="#30812C"/>
<stop offset="0.37" stop-color="#3FA739"/>
<stop offset="0.48" stop-color="#4BC744"/>
<stop offset="0.59" stop-color="#54E04C"/>
<stop offset="0.72" stop-color="#5AF152"/>
<stop offset="0.84" stop-color="#5EFB55"/>
<stop offset="1" stop-color="#60FF57"/>
</linearGradient>
<linearGradient id="paint12_linear_20_146" x1="6.00633" y1="100.48" x2="182.3" y2="100.48" gradientUnits="userSpaceOnUse">
<stop stop-color="#60FF57"/>
<stop offset="0.5"/>
<stop offset="1" stop-color="#09FF00"/>
</linearGradient>
</defs>
</svg>
