<svg width="206" height="227" viewBox="0 0 206 227" fill="none" xmlns="http://www.w3.org/2000/svg">
<path d="M142.634 91.2149C141.457 89.7514 139.413 89.6587 138.047 91.0069C136.68 92.355 136.528 94.6136 137.705 96.0771C138.226 96.7248 138.935 97.0576 139.661 97.1598C145.024 106.026 146.115 116.824 143.266 126.82C142.943 126.967 142.616 127.161 142.347 127.426C140.981 128.774 140.828 131.033 142.005 132.496C143.183 133.96 145.226 134.052 146.593 132.704C147.758 131.555 147.965 129.715 147.266 128.296C150.651 116.868 149.309 104.509 143.288 94.2267C143.485 93.1722 143.287 92.0767 142.611 91.237L142.634 91.2149Z" fill="#60FF57"/>
<path d="M96.8566 79.2142C96.4773 79.5883 96.2003 79.9899 95.981 80.4632C91.5518 82.2185 87.4505 84.9781 83.5242 88.8503C78.9732 93.3385 75.7032 97.9769 73.5657 103.426C73.0966 103.589 72.6404 103.867 72.2389 104.263C70.7219 105.759 70.574 108.261 71.8615 109.861C73.1489 111.462 75.4327 111.565 76.9274 110.091C77.9982 109.035 78.3748 107.464 78.0524 106.069C79.8814 101.181 82.7882 96.9864 86.8484 92.9822C90.217 89.6601 93.6707 87.2392 97.4615 85.6852C98.747 86.3878 100.363 86.2079 101.523 85.0639C103.04 83.5678 103.188 81.0662 101.9 79.4659C100.613 77.8657 98.3289 77.7622 96.8342 79.2362L96.8566 79.2142Z" fill="#60FF57"/>
<path d="M110.741 156.508C110.561 156.685 110.405 156.84 110.264 157.065C101.78 158.506 93.7151 156.522 87.0459 150.279C86.9481 149.558 86.6804 148.875 86.1979 148.275C84.8857 146.644 82.6114 146.564 81.1103 148.045C79.5868 149.548 79.4383 152.061 80.7313 153.668C81.6189 154.772 82.9316 155.155 84.1659 154.841C91.8235 161.314 101.192 163.819 110.555 162.372C111.882 163.773 113.993 163.799 115.427 162.385C116.95 160.882 117.099 158.369 115.806 156.761C114.513 155.154 112.219 155.05 110.718 156.531L110.741 156.508Z" fill="#60FF57"/>
<path d="M67.4783 158.672C75.3469 146.219 86.9444 141.45 97.5352 142.924C98.3632 143.054 99.1738 142.513 99.4221 141.622L101.307 135.072C101.524 134.342 101.262 133.567 100.729 133.103C100.115 132.59 99.5486 131.986 99.0275 131.338C95.2828 126.682 94.723 120.09 97.0757 114.671C97.3726 113.991 97.3227 113.179 96.8787 112.627L92.6515 107.372C92.111 106.7 91.1964 106.612 90.4724 107.111C82.8135 112.729 72.8045 114.726 62.333 110.552C56.5465 108.254 51.6662 103.686 48.7625 97.7276C44.3505 88.6947 43.8875 79.4247 46.1478 71.3419C43.6588 77.5414 42.4001 84.4211 42.6948 91.533C43.4102 109.162 53.3394 123.555 67.1613 129.546C68.2596 130.012 68.5741 131.552 67.7356 132.509C55.0485 146.616 51.628 168.497 60.5888 186.083C63.7659 192.331 68.1593 197.294 73.2493 200.924C67.4787 195.598 63.441 187.53 62.7992 177.189C62.4 170.696 64.0155 164.11 67.4366 158.67L67.4783 158.672Z" fill="#60FF57"/>
<path d="M155.195 142.07C143.684 139.658 136.023 131.778 132.623 122.224C132.324 121.404 131.584 120.933 130.802 121.105L124.561 122.457C123.842 122.609 123.319 123.253 123.183 124.03C122.589 127.275 121.09 130.34 118.656 132.741C116.401 134.965 113.708 136.249 110.95 136.654C110.276 136.761 109.66 137.24 109.463 137.991L107.398 145.132C107.153 145.973 107.491 146.841 108.15 147.262C115.952 152.132 121.809 161.106 122.748 173.473C123.268 180.293 121.591 187.221 117.956 192.908C112.457 201.505 105.127 206.333 97.6594 207.953C103.717 207.467 109.793 205.462 115.437 201.824C130.343 192.225 137.95 174.002 135.876 156.537C135.732 155.263 136.826 154.184 137.952 154.488C153.381 158.782 170.605 152.513 180.933 137.224C184.869 131.412 187.368 124.96 188.478 118.375C186.162 126.449 180.964 133.977 172.558 139.009C167.213 142.223 161.01 143.324 155.151 142.114L155.195 142.07Z" fill="#60FF57"/>
<path d="M173.225 75.0522C158.462 63.1444 138.375 64.4072 124.256 76.7857C123.343 77.5999 121.953 77.1206 121.658 75.9047C116.985 56.153 100.187 42.4648 80.8074 44.1065C74.2407 44.6874 68.1043 46.9527 62.7408 50.4787C69.7985 46.9602 78.2518 46.3261 86.9807 49.9824C92.4532 52.2887 97.0574 56.6136 99.8355 62.2662C106.278 75.3229 104.591 88.8664 98.2338 98.7527C97.7669 99.4715 97.7882 100.397 98.3094 101.045L102.788 106.613C103.251 107.189 103.973 107.338 104.64 107.067C109.869 104.923 115.824 106.28 119.646 111.031C120.283 111.823 120.814 112.634 121.256 113.532L128.792 111.909C129.62 111.738 130.176 110.931 130.174 110.029C130.288 98.7265 135.694 87.109 146.928 79.9875C152.414 76.5133 158.838 75.2554 164.924 76.5257C174.127 78.423 180.9 83.7943 185.012 90.7562C182.342 84.7385 178.397 79.3335 173.158 75.1186L173.225 75.0522Z" fill="#60FF57"/>
<path d="M109.44 121.248C109.44 121.248 109.391 121.037 109.378 120.921C109.311 120.987 109.222 121.076 109.154 121.142C109.257 121.17 109.337 121.22 109.44 121.248Z" fill="#60FF57"/>
</svg>
